<svg width="65" height="75" viewBox="0 0 65 75" fill="none" xmlns="http://www.w3.org/2000/svg">
<path d="M22.5405 35.3574C31.6972 35.3574 40.8012 35.3573 49.9051 35.3575C50.9016 35.3575 51.3334 35.769 51.3334 36.7166C51.3335 38.0875 51.3347 39.4583 51.3328 40.8292C51.332 41.4312 50.8943 41.8566 50.2684 41.8566C39.2311 41.8578 28.1939 41.8557 17.1566 41.862C16.5239 41.8623 16.0356 41.4054 16.0122 40.5899C15.9744 39.2708 15.9761 37.9493 16.0135 36.6302C16.0307 36.0218 16.433 35.3352 17.4262 35.3503C19.113 35.3761 20.8005 35.3574 22.5405 35.3574Z" fill="#F6F4FF"/>
<path d="M17.303 23.0682C26.0162 23.0682 34.6808 23.0779 43.3454 23.0532C44.2249 23.0507 44.8477 23.6195 44.8095 24.466C44.7516 25.7498 44.7965 27.0378 44.7936 28.3241C44.7918 29.0983 44.306 29.5673 43.5024 29.5674C34.7675 29.5686 26.0326 29.5686 17.2977 29.5675C16.5294 29.5674 16.0201 29.0772 16.0073 28.2689C15.9866 26.9661 15.9796 25.6622 16.0102 24.3597C16.0285 23.5775 16.5156 23.0717 17.303 23.0682Z" fill="#F6F4FF"/>
<path d="M32.7711 17.2793C27.6564 17.2793 22.5944 17.2795 17.5323 17.2791C16.542 17.279 16.0071 16.7801 16.0028 15.8397C15.9972 14.6211 15.9831 13.4021 16.0103 12.184C16.0214 11.687 16.0778 11.163 16.6515 10.9136C16.8017 10.8483 16.9707 10.7849 17.1311 10.7848C23.7749 10.7784 30.4188 10.7786 37.0627 10.7804C37.7242 10.7806 38.149 11.2034 38.1496 11.8485C38.1509 13.2702 38.1515 14.692 38.1493 16.1137C38.1483 16.7993 37.6655 17.2719 36.9367 17.2766C35.5658 17.2855 34.1948 17.2792 32.7711 17.2793Z" fill="#F6F4FF"/>
<path d="M9.12133 17.888C6.87054 18.3658 4.60645 17.1799 4.12943 14.8511C3.62279 12.3775 5.21266 10.2723 7.83916 10.0527C10.4422 9.83501 12.6536 11.9257 12.2896 14.5418C12.0472 16.284 10.9614 17.4241 9.12133 17.888Z" fill="#DFDEFF"/>
<path d="M11.0161 29.24C9.60455 30.5793 7.04198 30.6029 5.54516 29.424C3.86117 28.0978 3.59572 25.6628 4.74101 24.0551C5.57809 22.88 6.79022 22.305 8.32 22.3474C10.0192 22.3945 11.2139 23.1936 11.9267 24.5987C12.7104 26.1435 12.344 28.1058 11.0161 29.24Z" fill="#DFDEFF"/>
<path d="M4.42394 40.3905C3.6283 38.4093 4.12751 36.3888 5.91665 35.2759C8.19128 33.8611 11.4955 34.8506 12.1991 37.6772C12.7504 39.8921 11.4315 42.0241 9.12683 42.511C7.47201 42.8607 5.56944 42.4459 4.42394 40.3905Z" fill="#DFDEFF"/>
<g clip-path="url(#clip0_2804_274)">
<path d="M35.649 59.1123C34.3481 60.2642 33.0552 62.2694 31.7552 63.422C31.0633 64.0355 30.3776 64.6547 29.6819 65.2647C29.3144 65.587 28.8665 65.6212 28.4057 65.4709C27.99 65.3354 27.7319 65.054 27.6957 64.6574C27.6499 64.155 27.6242 63.6501 27.6187 63.146C27.6074 62.1041 27.6153 61.062 27.6153 59.978C27.0277 59.978 26.4593 59.9627 25.8924 59.9822C25.2847 60.0032 24.7977 59.8303 24.43 59.3987C24.4096 52.3668 24.4299 38.248 24.4299 38.248C24.4299 38.248 24.5904 38.0827 24.6932 37.9768C24.796 37.8709 24.9564 37.7056 24.9564 37.7056C24.9564 37.7056 32.6626 37.7126 36.2409 37.7452C36.2748 39.2378 35.6541 40.6907 35.6524 42.1577C35.652 42.1647 35.6862 46.7136 35.6565 46.711C34.8143 46.8406 35.0446 46.9963 35.0366 47.7273C35.033 48.0588 34.7353 47.2999 34.7353 47.667C34.5414 47.667 31.3306 47.7273 31.1903 47.7273C30.137 47.7273 30.8476 45.7704 29.7944 45.779C29.5771 45.7808 30.3691 44.4354 30.1672 44.5007C29.6589 44.665 29.3516 45.1607 29.4432 45.6115C29.5507 46.1403 29.9919 46.49 30.617 46.4937C32.2943 46.5034 33.9718 46.4974 35.649 46.5091C35.6489 46.5205 35.6572 46.542 35.6565 46.5749C35.6559 47.7922 35.6559 48.9767 35.654 50.1759C35.6521 50.1907 35.6766 53.278 35.6528 53.2706C35.1515 52.6428 34.6443 48.9671 34.1724 48.3434C33.9602 48.063 33.7051 47.8435 33.3146 47.794C32.8371 47.7336 32.4326 47.8577 32.1571 48.2211C31.8664 48.6047 31.8621 49.0117 32.1458 49.3963C32.715 50.1681 33.3018 50.9296 33.902 51.7227C33.7219 51.8402 33.5294 51.974 33.3279 52.0959C32.3747 52.6726 31.3358 53.0887 30.2465 53.4166C29.7046 53.5797 29.3874 54.0208 29.4311 54.4828C29.4748 54.9451 28.0351 52.9033 28.5587 52.9699C28.8035 53.001 27.9938 43.2386 28.2359 43.1729C29.7444 42.764 33.6763 48.7929 34.9381 47.9575C35.061 47.8761 35.5297 53.2793 35.6571 53.215C35.6537 53.2225 35.6526 53.2387 35.6528 53.2706C35.6549 55.5047 35.6474 56.8959 35.649 59.1123Z" fill="#FFEBA7"/>
<path d="M34.8204 59.2299C34.8185 57.0945 34.8166 54.959 34.8399 52.7986C36.2615 53.7351 35.5286 47.4777 37.2598 47.8828C37.869 48.0254 39.9525 51.7078 40.1654 51.1914C40.3641 50.7096 40.8662 53.2006 40.3194 52.9734C40.1572 52.906 39.9788 52.8676 39.8072 52.8173C38.6194 52.4685 37.5238 51.9741 36.5374 51.2947C36.5644 51.2489 36.5757 51.2157 36.5993 51.1914C37.9496 49.8055 38.9117 48.2445 39.4372 46.4878C39.4861 46.3243 39.575 46.2631 39.7826 46.2469C40.5484 46.1871 41.0293 45.7407 40.9912 45.1611C40.9535 44.5875 40.4073 44.1864 39.6515 44.1846C38.5714 44.182 37.4912 44.1839 36.411 44.1839C36.2748 44.1839 36.1386 44.1839 35.984 44.1839C35.984 43.8344 35.9847 43.5425 35.9839 43.2507C35.9818 42.5175 36.1813 42.1871 35.3534 42.0394C35.3547 40.6237 35.3507 39.1648 35.3534 37.7176C38.8722 37.686 41.8558 37.6999 45.3848 37.7176C45.6988 37.9855 46.0574 38.2078 45.996 38.67C45.9966 40.8925 45.9983 43.0829 46.0003 45.3041C46.0001 49.5812 45.988 53.8276 46.0109 58.0739C46.0145 58.7529 45.5129 59.2795 44.6439 59.2555C43.6047 59.2269 42.5635 59.2464 41.5232 59.2514C41.3721 59.2521 41.2212 59.2879 41.0702 59.3074C41.0702 59.3074 41.0575 59.3003 41.0311 59.2778C40.8764 59.2466 40.748 59.2304 40.6196 59.2303C38.6865 59.2289 36.7535 59.2296 34.8204 59.2299Z" fill="#F6D565"/>
<path d="M24.9176 34.2949C24.7878 34.4941 24.6191 34.6933 24.43 34.8671C24.4097 34.6662 24.4097 34.4906 24.4097 34.2949C24.5658 34.2949 24.7223 34.2949 24.9176 34.2949Z" fill="black"/>
<path d="M35.6585 59.2338C37.5919 59.2176 39.525 59.2167 41.4581 59.2183C41.5864 59.2185 41.7148 59.2372 41.867 59.2662C39.8375 59.2879 37.784 59.2907 35.6941 59.2877C35.6577 59.2818 35.6582 59.2498 35.6585 59.2338Z" fill="#FFB113"/>
<path d="M35.6567 40.9524C36.3808 40.9155 44.4066 45.7306 45.1794 45.7306C44.7306 47.2609 36.6618 52.0823 35.6567 53.2852C35.6335 51.968 35.656 42.3188 35.6567 40.9524Z" fill="#F6D565"/>
<path d="M58.4267 72.1029C58.2825 72.1029 58.1477 72.0411 58.0687 71.9204C58.056 71.9009 58.0422 71.8804 58.0267 71.8586C58.0253 71.8568 58.0237 71.8551 58.0219 71.8537C57.9797 71.8214 57.9576 71.8068 57.9391 71.7983C57.9356 71.7967 57.9213 71.7804 57.919 71.7773C57.9189 71.7771 57.9183 71.7764 57.9182 71.7762C57.9117 71.7703 57.9057 71.765 57.9 71.7601C57.8618 71.7273 57.8049 71.7132 57.7798 71.6696C57.7763 71.6634 57.7726 71.6563 57.7688 71.6483C57.7678 71.6464 57.7667 71.6445 57.7655 71.6427C57.7378 71.6015 57.7185 71.5822 57.7008 71.5671C57.6965 71.5634 57.6886 71.5482 57.6852 71.5436C57.685 71.5433 57.6842 71.5423 57.684 71.5421C57.6584 71.5179 57.6395 71.5025 57.6221 71.4888C57.6178 71.4855 57.6103 71.4703 57.607 71.4659C57.6069 71.4657 57.6062 71.4648 57.606 71.4646C57.5807 71.4402 57.5621 71.4245 57.5449 71.4105C57.5408 71.4072 57.5327 71.3917 57.5297 71.3874C57.5296 71.3871 57.5288 71.386 57.5285 71.3858C57.5036 71.3615 57.485 71.3461 57.4677 71.3326C57.4633 71.3293 57.4544 71.3136 57.4514 71.3091C57.4512 71.3088 57.4503 71.3075 57.45 71.3073C57.425 71.2829 57.4062 71.2677 57.3888 71.2544C57.3843 71.2509 57.376 71.2357 57.3726 71.2311C57.3724 71.2309 57.3716 71.2299 57.3714 71.2297C57.3458 71.2054 57.327 71.19 57.3096 71.1763C57.3053 71.173 57.2978 71.1578 57.2946 71.1534C57.2944 71.1532 57.2937 71.1523 57.2935 71.1521C57.2682 71.1278 57.2496 71.112 57.2324 71.0981C57.2283 71.0947 57.2201 71.0792 57.2171 71.0748C57.217 71.0745 57.2162 71.0735 57.2159 71.0732C57.1907 71.0488 57.1719 71.0335 57.1544 71.02C57.1499 71.0165 57.1417 71.0013 57.1383 70.9967C57.1381 70.9965 57.1373 70.9955 57.1371 70.9953C57.1115 70.9711 57.0927 70.9556 57.0753 70.942C57.071 70.9386 57.0634 70.9234 57.0601 70.919C57.0599 70.9188 57.0592 70.9179 57.059 70.9177C57.0334 70.8934 57.0145 70.8778 56.9971 70.8639C56.9928 70.8605 56.9853 70.8453 56.982 70.8409C56.9818 70.8406 56.9811 70.8398 56.9809 70.8396C56.9553 70.8152 56.9364 70.7996 56.919 70.7858C56.9147 70.7824 56.9072 70.7671 56.9039 70.7627C56.9037 70.7625 56.903 70.7616 56.9028 70.7614C56.8771 70.7371 56.8583 70.7215 56.8408 70.7076C56.8365 70.7042 56.829 70.689 56.8257 70.6846C56.8256 70.6844 56.8248 70.6835 56.8246 70.6833C56.799 70.659 56.7802 70.6434 56.7627 70.6295C56.7584 70.6261 56.7509 70.6109 56.7476 70.6065C56.7474 70.6063 56.7467 70.6054 56.7465 70.6052C56.7209 70.5809 56.7021 70.5653 56.6846 70.5514C56.6803 70.548 56.6728 70.5328 56.6695 70.5284C56.6693 70.5281 56.6686 70.5272 56.6684 70.527C56.6428 70.5027 56.6239 70.4871 56.6065 70.4733C56.6022 70.4699 56.5947 70.4546 56.5914 70.4502C56.5912 70.45 56.5905 70.4491 56.5903 70.4489C56.5646 70.4246 56.5458 70.409 56.5283 70.3951C56.524 70.3917 56.5165 70.3765 56.5132 70.3721C56.5131 70.3719 56.5124 70.371 56.5121 70.3708C56.4865 70.3465 56.4677 70.3309 56.4502 70.317C56.4459 70.3136 56.4384 70.2984 56.4351 70.294C56.4349 70.2938 56.4342 70.2929 56.434 70.2927C56.4084 70.2684 56.3896 70.2528 56.3721 70.2389C56.3678 70.2355 56.3603 70.2203 56.357 70.2159C56.3568 70.2156 56.3561 70.2147 56.3559 70.2145C56.3303 70.1902 56.3114 70.1746 56.294 70.1608C56.2897 70.1574 56.2822 70.1421 56.2789 70.1377C56.2787 70.1375 56.278 70.1366 56.2778 70.1364C56.2521 70.1121 56.2333 70.0965 56.2158 70.0826C56.2115 70.0792 56.204 70.064 56.2007 70.0596C56.2006 70.0594 56.1999 70.0585 56.1996 70.0583C56.174 70.034 56.1552 70.0184 56.1377 70.0045C56.1334 70.0011 56.1259 69.9859 56.1226 69.9815C56.1224 69.9813 56.1217 69.9804 56.1215 69.9802C56.0959 69.9559 56.0771 69.9403 56.0596 69.9264C56.0553 69.923 56.0478 69.9078 56.0445 69.9034C56.0443 69.9031 56.0436 69.9022 56.0434 69.902C56.0178 69.8777 55.9989 69.8621 55.9815 69.8483C55.9772 69.8449 55.9697 69.8296 55.9664 69.8252C55.9662 69.825 55.9655 69.8241 55.9653 69.8239C55.9396 69.7996 55.9208 69.784 55.9033 69.7701C55.899 69.7667 55.8915 69.7515 55.8882 69.7471C55.8881 69.7469 55.8874 69.746 55.8871 69.7458C55.8615 69.7215 55.8427 69.7059 55.8252 69.692C55.8209 69.6886 55.8134 69.6734 55.8101 69.669C55.8099 69.6688 55.8092 69.6679 55.809 69.6677C55.7834 69.6434 55.7646 69.6278 55.7471 69.6139C55.7428 69.6105 55.7353 69.5953 55.732 69.5909C55.7318 69.5906 55.7311 69.5897 55.7309 69.5896C55.7053 69.5652 55.6864 69.5496 55.669 69.5358C55.6647 69.5324 55.6572 69.5171 55.6539 69.5127C55.6537 69.5125 55.653 69.5116 55.6528 69.5114C55.6271 69.4871 55.6083 69.4715 55.5908 69.4576C55.5865 69.4542 55.579 69.439 55.5757 69.4346C55.5756 69.4344 55.5749 69.4335 55.5746 69.4333C55.549 69.409 55.5302 69.3934 55.5127 69.3795C55.5084 69.3761 55.5009 69.3609 55.4976 69.3565C55.4974 69.3563 55.4967 69.3554 55.4965 69.3552C55.4709 69.3309 55.4521 69.3153 55.4346 69.3014C55.4303 69.298 55.4228 69.2828 55.4195 69.2784C55.4193 69.2781 55.4186 69.2772 55.4184 69.277C55.3928 69.2527 55.3739 69.2371 55.3565 69.2233C55.3522 69.2199 55.3447 69.2046 55.3414 69.2002C55.3412 69.2 55.3405 69.1991 55.3403 69.1989C55.3146 69.1746 55.2958 69.159 55.2783 69.1451C55.274 69.1417 55.2665 69.1265 55.2632 69.1221C55.2631 69.1219 55.2624 69.121 55.2621 69.1208C55.2365 69.0965 55.2177 69.0809 55.2002 69.067C55.1959 69.0636 55.1884 69.0484 55.1851 69.044C55.1849 69.0438 55.1842 69.0429 55.184 69.0427C55.1584 69.0184 55.1396 69.0028 55.1221 68.9889C55.1178 68.9855 55.1103 68.9703 55.107 68.9659C55.1068 68.9656 55.1061 68.9647 55.1059 68.9645C55.0803 68.9402 55.0614 68.9246 55.044 68.9108C55.0397 68.9074 55.0322 68.8921 55.0289 68.8877C55.0287 68.8875 55.028 68.8866 55.0278 68.8864C55.0021 68.8621 54.9833 68.8465 54.9658 68.8326C54.9615 68.8292 54.954 68.814 54.9507 68.8096C54.9506 68.8094 54.9499 68.8085 54.9496 68.8083C54.924 68.784 54.9052 68.7684 54.8877 68.7545C54.8834 68.7511 54.8759 68.7359 54.8726 68.7315C54.8724 68.7313 54.8717 68.7304 54.8715 68.7302C54.8459 68.7059 54.8271 68.6903 54.8096 68.6764C54.8053 68.673 54.7978 68.6578 54.7945 68.6534C54.7943 68.6531 54.7936 68.6522 54.7934 68.652C54.7678 68.6277 54.7489 68.6121 54.7315 68.5983C54.7272 68.5949 54.7197 68.5796 54.7164 68.5752C54.7162 68.575 54.7155 68.5741 54.7153 68.5739C54.6896 68.5496 54.6708 68.534 54.6533 68.5201C54.649 68.5167 54.6415 68.5015 54.6382 68.4971C54.6381 68.4969 54.6374 68.496 54.6371 68.4958C54.6115 68.4715 54.5927 68.4559 54.5752 68.442C54.5709 68.4386 54.5634 68.4234 54.5601 68.419C54.5599 68.4188 54.5592 68.4179 54.559 68.4177C54.5334 68.3934 54.5146 68.3778 54.4971 68.3639C54.4928 68.3605 54.4853 68.3453 54.482 68.3409C54.4818 68.3406 54.4811 68.3397 54.4809 68.3395C54.4553 68.3152 54.4364 68.2996 54.419 68.2858C54.4147 68.2824 54.4072 68.2671 54.4039 68.2627C54.4037 68.2625 54.403 68.2616 54.4028 68.2614C54.3771 68.2371 54.3583 68.2215 54.3408 68.2076C54.3365 68.2042 54.329 68.189 54.3257 68.1846C54.3256 68.1844 54.3249 68.1835 54.3246 68.1833C54.299 68.159 54.2802 68.1434 54.2627 68.1295C54.2584 68.1261 54.2509 68.1109 54.2476 68.1065C54.2474 68.1063 54.2467 68.1054 54.2465 68.1052C54.2209 68.0809 54.2021 68.0653 54.1846 68.0514C54.1803 68.048 54.1728 68.0328 54.1695 68.0284C54.1693 68.0281 54.1686 68.0272 54.1684 68.027C54.1428 68.0027 54.1239 67.9871 54.1065 67.9733C54.1022 67.9699 54.0947 67.9546 54.0914 67.9502C54.0912 67.95 54.0905 67.9491 54.0903 67.9489C54.0646 67.9246 54.0458 67.909 54.0283 67.8951C54.024 67.8917 54.0165 67.8765 54.0132 67.8721C54.0131 67.8719 54.0124 67.871 54.0121 67.8708C53.9865 67.8465 53.9677 67.8309 53.9502 67.817C53.9459 67.8136 53.9384 67.7984 53.9351 67.794C53.9349 67.7938 53.9342 67.7929 53.934 67.7927C53.9084 67.7684 53.8896 67.7528 53.8721 67.7389C53.8678 67.7355 53.8603 67.7203 53.857 67.7159C53.8568 67.7156 53.8561 67.7147 53.8559 67.7145C53.8303 67.6902 53.8114 67.6746 53.794 67.6608C53.7897 67.6574 53.7822 67.6421 53.7789 67.6377C53.7787 67.6375 53.778 67.6366 53.7778 67.6364C53.7521 67.6121 53.7333 67.5965 53.7158 67.5826C53.7115 67.5792 53.704 67.564 53.7007 67.5596C53.7006 67.5594 53.6999 67.5585 53.6996 67.5583C53.674 67.534 53.6552 67.5184 53.6377 67.5045C53.6334 67.5011 53.6259 67.4859 53.6226 67.4815C53.6224 67.4813 53.6217 67.4804 53.6215 67.4802C53.5959 67.4559 53.5771 67.4403 53.5596 67.4264C53.5553 67.423 53.5478 67.4078 53.5445 67.4034C53.5443 67.4031 53.5436 67.4022 53.5434 67.402C53.5178 67.3777 53.4989 67.3621 53.4815 67.3483C53.4772 67.3449 53.4697 67.3296 53.4664 67.3252C53.4662 67.325 53.4655 67.3241 53.4653 67.3239C53.4396 67.2996 53.4208 67.284 53.4033 67.2701C53.399 67.2667 53.3915 67.2515 53.3882 67.2471C53.3881 67.2469 53.3874 67.246 53.3871 67.2458C53.3615 67.2215 53.3427 67.2059 53.3252 67.192C53.3209 67.1886 53.3134 67.1734 53.3101 67.169C53.3099 67.1688 53.3092 67.1679 53.309 67.1677C53.2834 67.1434 53.2646 67.1278 53.2471 67.1139C53.2428 67.1105 53.2353 67.0953 53.232 67.0909C53.2318 67.0906 53.2311 67.0897 53.2309 67.0895C53.2053 67.0652 53.1864 67.0496 53.169 67.0358C53.1647 67.0324 53.1572 67.0171 53.1539 67.0127C53.1537 67.0125 53.153 67.0116 53.1528 67.0114C53.1271 66.9871 53.1083 66.9715 53.0908 66.9576C53.0865 66.9542 53.079 66.939 53.0757 66.9346C53.0756 66.9344 53.0749 66.9335 53.0746 66.9333C53.049 66.909 53.0302 66.8934 53.0127 66.8795C53.0084 66.8761 53.0009 66.8609 52.9976 66.8565C52.9974 66.8563 52.9967 66.8554 52.9965 66.8552C52.9709 66.8309 52.9521 66.8153 52.9346 66.8014C52.9303 66.798 52.9228 66.7828 52.9195 66.7784C52.9193 66.7781 52.9186 66.7772 52.9184 66.777C52.8928 66.7527 52.8739 66.7371 52.8565 66.7233C52.8522 66.7199 52.8447 66.7046 52.8414 66.7002C52.8412 66.7 52.8405 66.6991 52.8403 66.6989C52.8146 66.6746 52.7958 66.659 52.7783 66.6451C52.774 66.6417 52.7665 66.6265 52.7632 66.6221C52.7631 66.6219 52.7624 66.621 52.7621 66.6208C52.7365 66.5965 52.7177 66.5809 52.7002 66.567C52.6959 66.5636 52.6884 66.5484 52.6851 66.544C52.6849 66.5438 52.6842 66.5429 52.684 66.5427C52.6584 66.5184 52.6396 66.5028 52.6221 66.4889C52.6178 66.4855 52.6103 66.4703 52.607 66.4659C52.6068 66.4656 52.6061 66.4647 52.6059 66.4645C52.5803 66.4402 52.5614 66.4246 52.544 66.4108C52.5397 66.4074 52.5322 66.3921 52.5289 66.3877C52.5287 66.3875 52.528 66.3866 52.5278 66.3864C52.5021 66.3621 52.4833 66.3465 52.4658 66.3326C52.4615 66.3292 52.454 66.314 52.4507 66.3096C52.4506 66.3094 52.4499 66.3085 52.4496 66.3083C52.424 66.284 52.4052 66.2684 52.3877 66.2545C52.3834 66.2511 52.3759 66.2359 52.3726 66.2315C52.3724 66.2313 52.3717 66.2304 52.3715 66.2302C52.3459 66.2059 52.3271 66.1903 52.3096 66.1764C52.3053 66.173 52.2978 66.1577 52.2945 66.1534C52.2943 66.1531 52.2936 66.1522 52.2934 66.1521C52.2678 66.1277 52.2489 66.1121 52.2315 66.0983C52.2272 66.0949 52.2197 66.0796 52.2164 66.0752C52.2162 66.075 52.2155 66.0741 52.2153 66.0739C52.1896 66.0496 52.1708 66.034 52.1533 66.0201C52.1491 66.0167 52.1415 66.0015 52.1382 65.9971C52.1381 65.9969 52.1374 65.996 52.1372 65.9958C52.1339 65.9927 52.1307 65.9897 52.1276 65.9868C52.0878 65.95 52.0613 65.9005 52.0595 65.8464C52.0477 65.4775 52.0038 64.1183 52.0597 65.9181C51.9973 63.4196 51.996 63.5922 51.9955 64.2257C51.9955 64.2471 51.9955 64.2681 51.9954 64.2895C51.995 64.5128 51.9925 65.8534 51.9946 65.8218C51.9959 63.4794 51.9958 61.1588 52.0134 58.8404C52.0209 57.8458 52.8279 57.0868 53.8212 57.0363C54.1445 57.0198 54.2846 57.1227 54.3432 57.4383C54.4188 57.8449 54.5343 58.2446 54.6455 58.6437C54.8361 59.3281 49.0154 57.2219 49.6751 57.0497C50.2952 56.8879 50.8076 58.3342 50.6423 57.6691C49.9392 54.8402 49.6675 53.7416 48.9635 50.913C48.7533 50.0686 50.0857 49.0912 51.1319 48.3386C52.0483 47.6793 51.9982 46.2584 51.9888 45.1295C51.9853 44.7135 51.9833 44.3167 51.9896 43.6248C51.9927 43.2927 51.8054 43.0032 52.1375 43.0069C52.3985 43.0069 52.3949 43.007 52.5108 43.007C55.7025 43.0079 58.9194 43.0281 62.1391 43.0297C62.3158 43.0297 62.4912 43.0773 62.626 43.1915C62.6644 43.224 62.7019 43.2573 62.739 43.2906C62.9218 43.4547 63.0434 43.6973 63.0434 43.9429C63.0434 51.6342 63.2325 56.9843 63.2236 64.567C63.2231 64.9452 63.0562 65.3049 62.757 65.5364C62.5517 65.6952 62.2943 65.7756 62.0346 65.7738C61.8792 65.7728 61.73 65.7728 61.581 65.7776C61.1031 65.7929 60.6256 65.8174 60.1325 65.8438C60.112 65.8449 60.0966 65.8468 60.0768 65.8522C60.0447 65.861 60.0231 65.8946 60.0138 65.9266C59.9838 66.0295 59.9629 66.1169 59.9628 66.2044C59.9617 67.5469 59.9633 68.8894 59.9636 70.2517C59.9637 70.7291 59.9492 71.2248 59.7425 71.6551C59.5908 71.9709 59.2084 72.1029 58.8581 72.1029C58.717 72.1029 58.5737 72.1029 58.4267 72.1029Z" fill="#FFEBA7"/>
<path d="M46.0059 43.0184C48.0687 43.0223 49.9933 43.013 52.0942 43.0224C52.1283 45.1009 52.1243 47.174 52.1149 49.2888C52.1094 49.3307 52.116 49.3454 52.0824 49.3421C50.8234 49.3891 49.7824 50.1744 49.4788 51.3613C48.7231 54.3149 47.9932 57.2751 47.2634 60.2352C47.1015 60.8915 47.4684 61.5105 48.0729 61.6721C48.7187 61.8448 49.3482 61.4642 49.5332 60.7788C49.6482 60.353 49.7592 59.9255 49.8494 59.494C49.8984 59.2597 50.0062 59.1857 50.2448 59.1911C50.868 59.2052 51.4919 59.1902 52.1123 59.1945C52.109 59.2023 52.1179 59.2165 52.1179 59.2165C52.1185 62.1276 52.0854 63.0221 52.0824 65.9702C48.8018 66.0045 45.4349 65.9365 42.1583 65.9702C41.3864 65.9782 40.862 65.3116 40.8648 64.3677C40.8717 61.9489 40.8653 61.7682 40.8648 59.3136C41.0153 59.2551 41.1662 59.2138 41.3173 59.2129C42.3576 59.2072 43.3988 59.1845 44.438 59.2177C45.3069 59.2454 45.8086 58.6359 45.8049 57.8499C45.7821 52.9345 45.9337 48.0297 45.953 43.0737C45.9836 43.0274 45.9941 43.0241 46.0059 43.0184Z" fill="#FFEBA7"/>
<path d="M52.1117 51.6538C52.2669 51.7691 52.5171 51.8662 52.5575 52.0189C52.9753 53.5957 53.3592 55.1814 53.7694 56.8323C53.2153 56.8323 52.7004 56.8323 52.1498 56.8406C52.1141 56.8489 52.1084 56.8326 52.1156 56.7898C52.122 55.0557 52.1211 53.3644 52.1202 51.6732C52.1202 51.6732 52.1092 51.6615 52.1117 51.6538Z" fill="#F6D565"/>
<path d="M52.0914 51.6714C52.1212 53.3646 52.122 55.0558 52.1213 56.7834C51.6031 56.8197 51.0866 56.8197 50.5225 56.8197C50.6872 56.1615 50.8442 55.5366 51 54.9114C51.2288 53.9936 51.4439 53.072 51.696 52.1607C51.7467 51.9772 51.9367 51.8322 52.0914 51.6714Z" fill="#FFEBA7"/>
<rect x="24.208" y="37.4004" width="22.2844" height="22.5864" rx="2" fill="#FFEBA7"/>
<rect x="40.8647" y="42.9238" width="22.9568" height="23.0562" rx="2" fill="#FFEBA7"/>
<path d="M52.1145 49.3037C53.7201 49.422 54.5419 50.1307 54.9358 51.7135C55.6399 54.5421 56.3502 57.3692 57.0533 60.1981C57.2186 60.8632 56.8547 61.4997 56.2346 61.6615C55.5749 61.8336 54.9597 61.4704 54.7691 60.7861C54.658 60.387 54.5424 59.9873 54.4669 59.5807C54.4082 59.2651 54.2681 59.1622 53.9449 59.1787C53.3613 59.2084 52.7751 59.1875 52.1544 59.1921C52.1187 59.1965 52.1098 59.1822 52.1136 59.1379C52.1164 58.3453 52.1153 57.5971 52.1501 56.8406C52.7007 56.8322 53.2155 56.8322 53.7696 56.8322C53.3595 55.1813 52.9755 53.5956 52.5578 52.0189C52.5173 51.8662 52.2672 51.7691 52.1152 51.6108C52.1163 50.8255 52.1166 50.0754 52.1169 49.3253C52.1169 49.3253 52.1103 49.3106 52.1145 49.3037Z" fill="#21232D"/>
<path d="M52.1126 49.3218C52.146 50.0751 52.1209 50.7731 52.1174 51.5661C52.1141 51.6091 52.1354 51.6137 52.0929 51.6227C51.9382 51.7835 51.7468 51.9771 51.696 52.1606C51.4439 53.0719 51.2289 53.9935 51.0001 54.9112C50.8443 55.5364 50.6873 56.1614 50.5225 56.8196C51.0867 56.8196 51.6032 56.8196 52.1142 56.8261C52.1086 56.8327 52.1142 56.849 52.1142 56.849C52.1152 57.5972 52.1163 58.3454 52.1168 59.1302C51.4926 59.1702 50.8687 59.1853 50.2455 59.1712C50.0069 59.1658 49.8991 59.2397 49.8501 59.474C49.7599 59.9055 49.6489 60.3331 49.534 60.7589C49.349 61.4442 48.7195 61.8249 48.0736 61.6522C47.4691 61.4905 47.1023 60.8716 47.2641 60.2152C47.994 57.2551 48.7238 54.2949 49.4795 51.3413C49.7832 50.1544 50.8536 49.3688 52.1126 49.3218Z" fill="#21232D"/>
<path d="M35.3579 41.229C36.1863 41.3921 36.5256 41.8084 36.5276 42.6572C36.5284 42.995 36.5278 43.3328 36.5278 43.7374C36.6824 43.7374 36.8186 43.7374 36.9548 43.7374C38.0349 43.7374 39.1151 43.7353 40.1953 43.7383C40.9511 43.7403 41.4973 44.2046 41.535 44.8686C41.5731 45.5396 41.0921 46.0563 40.3263 46.1255C40.1187 46.1443 40.0298 46.2152 39.9809 46.4043C39.4554 48.4379 38.4933 50.2448 37.1431 51.8492C37.1194 51.8773 37.1081 51.9157 37.0812 51.9687C38.0676 52.7552 39.1631 53.3275 40.351 53.7312C40.5225 53.7895 40.701 53.834 40.8632 53.912C41.41 54.175 41.6647 54.7975 41.4661 55.3553C41.2532 55.9531 40.6798 56.2804 40.0705 56.1154C38.3394 55.6464 36.8052 54.7937 35.3834 53.6738C35.3581 53.6671 35.3592 53.6489 35.3618 53.6053C35.3617 52.4676 35.3589 51.3733 35.3562 50.2791C35.3562 50.2791 35.3576 50.2458 35.3827 50.2169C36.3896 48.9974 37.1335 47.6806 37.5823 46.1503C36.8095 46.1503 36.0861 46.1503 35.3627 46.1503C35.3627 46.1503 35.3543 46.1261 35.3569 46.075C35.3613 44.4329 35.3633 42.8418 35.3652 41.2507C35.3652 41.2507 35.3574 41.2369 35.3579 41.229Z" fill="#21232D"/>
<path d="M35.3234 50.3555C35.3499 51.4581 35.3526 52.5524 35.3561 53.6817C35.2261 53.7974 35.0884 53.8689 34.9655 53.9602C33.7037 54.898 32.3425 55.6462 30.8341 56.1052C30.592 56.1789 30.3188 56.2332 30.074 56.1983C29.5503 56.1236 29.1713 55.6672 29.1275 55.1484C29.0838 54.6298 29.401 54.1346 29.9429 53.9515C31.0322 53.5835 32.0712 53.1164 33.0243 52.4691C33.2259 52.3323 33.4184 52.1821 33.5984 52.0502C32.9982 51.16 32.4114 50.3053 31.8422 49.4389C31.5585 49.0071 31.5628 48.5504 31.8536 48.1198C32.129 47.7118 32.5336 47.5726 33.011 47.6404C33.4016 47.6959 33.6567 47.9423 33.8688 48.257C34.3408 48.9571 34.8221 49.6508 35.3234 50.3555Z" fill="#21232D"/>
<path d="M35.3263 41.3325C35.3542 42.9265 35.3523 44.5176 35.3479 46.1469C33.6681 46.1849 31.9907 46.1917 30.3134 46.1807C29.6883 46.1766 29.2471 45.7841 29.1396 45.1906C29.048 44.6846 29.3553 44.1282 29.8636 43.9437C30.0655 43.8704 30.2948 43.8474 30.5121 43.8454C31.5653 43.8357 32.6186 43.841 33.6719 43.841C33.8122 43.841 33.9524 43.841 34.1463 43.841C34.1463 43.429 34.1433 43.0568 34.147 42.6846C34.155 41.8642 34.4842 41.478 35.3263 41.3325Z" fill="#21232D"/>
</g>
<defs>
<clipPath id="clip0_2804_274">
<rect width="40" height="40" fill="white" transform="translate(24.3315 34.2168)"/>
</clipPath>
</defs>
</svg>
