<svg width="80" height="73" viewBox="0 0 80 73" fill="none" xmlns="http://www.w3.org/2000/svg">
<g clip-path="url(#clip0_2804_233)">
<path d="M38.0417 0.12793C45.0742 0.12793 52.1067 0.12793 59.1991 0.187831C59.259 1.97117 59.2569 3.69462 59.2616 5.41805C59.2622 5.64982 59.2711 5.8872 59.3202 6.11236C59.8743 8.65136 61.7353 10.0275 64.4278 10.0906C65.7888 10.1225 67.1512 10.1018 68.5128 10.09C68.7108 10.0882 68.9082 10.0029 69.155 9.98408C69.2144 13.2744 69.2246 16.5369 69.1944 19.8223C68.5675 20.1784 67.8885 20.4134 67.4115 20.8628C65.8839 22.3018 64.4312 23.8202 62.9128 25.3267C61.7151 26.5167 60.5543 27.6879 59.3581 28.8775C59.2213 28.9806 59.1201 29.0651 58.9579 29.147C53.09 29.1436 47.283 29.1407 41.4761 29.1489C41.2359 29.1493 40.9651 29.2002 40.7624 29.3192C40.3431 29.5653 40.2156 29.9997 40.3847 30.427C40.558 30.865 40.919 31.072 41.4435 31.0703C46.3782 31.0536 51.3131 31.0585 56.248 31.0665C56.4887 31.0668 56.8774 31.1024 57.0995 31.187C56.737 31.571 56.2451 31.9686 55.901 32.3144C53.5687 34.6593 51.2362 37.0042 48.8657 39.3692C48.5614 39.6406 48.2952 39.8919 47.968 40.1405C45.9553 40.1371 44.0036 40.1316 42.052 40.1408C41.7602 40.1422 41.4689 40.2154 41.1769 40.2509C40.5888 40.3223 40.3133 40.6602 40.3467 41.2429C40.3792 41.8101 40.7841 42.1704 41.4222 42.1756C42.7586 42.1865 44.0952 42.1734 45.4316 42.1847C45.6527 42.1866 45.8733 42.2623 46.0812 42.3459C44.7312 44.2287 44.1182 46.381 43.5452 48.5249C43.1103 50.1523 44.3788 51.6499 46.1449 51.7534C47.1537 51.495 48.109 51.2259 49.0656 50.9611C51.8744 50.1835 54.0308 48.4505 55.9416 46.2776C58.4288 43.8145 60.8738 41.3697 63.3236 38.9297C63.5001 38.7539 63.7118 38.6134 63.893 38.5096C63.8507 38.9775 63.7198 39.417 63.8125 39.8028C64.1763 41.3162 65.9445 41.797 67.1236 40.7267C67.8376 40.0786 68.5296 39.4062 69.23 38.8036C69.2287 42.608 69.2342 46.3536 69.2228 50.0991C69.2211 50.6838 69.2121 51.2837 69.0873 51.8503C68.2966 55.4395 66.1898 57.9064 62.6714 59.183C61.9552 59.308 61.2924 59.543 60.6288 59.5454C53.2387 59.5721 45.8485 59.5645 38.4583 59.556C38.2407 59.5557 37.9672 59.5091 37.8142 59.3757C35.6439 57.4829 34.355 55.0634 34.2467 52.2188C34.0978 48.3061 34.1676 44.3005 34.2107 40.4048C34.6983 40.8799 35.1841 41.4298 35.6514 41.8626C36.1479 42.3226 36.7998 42.2763 37.1528 41.777C37.5051 41.2787 37.4048 40.8231 36.9928 40.4048C36.4329 39.8365 35.8779 39.2632 35.1654 38.5328C35.8203 37.9583 36.4336 37.4623 36.9962 36.9143C37.4934 36.4299 37.4895 35.8743 37.061 35.4516C36.6414 35.0377 36.0859 35.0597 35.5914 35.5297C35.13 35.9684 34.6834 36.4228 34.2238 36.8069C34.2157 34.2899 33.6301 31.7541 33.6672 29.3192C34.1101 29.7446 35.0958 30.2358 35.5031 30.6393C36.0364 31.1676 36.6475 31.2327 37.0669 30.812C37.5137 30.364 37.4795 29.8015 36.9112 29.251C36.3665 28.7233 35.7789 28.2397 35.0672 27.6103C35.8444 26.9065 36.468 26.3919 37.0303 25.8174C37.5073 25.33 37.4733 24.7542 37.0313 24.3521C36.6183 23.9766 36.077 24.01 35.6099 24.4539C35.18 24.8625 34.7606 25.2821 34.299 25.6582C34.2438 25.5377 34.2109 25.4558 34.2107 25.3739C34.2075 23.1893 34.2057 21.0046 34.2121 18.82C34.2125 18.6816 34.2817 18.5435 34.3576 18.4253C34.829 18.8846 35.2354 19.3544 35.7008 19.7559C36.3315 20.3 37.2961 19.9617 37.3322 19.165C37.3471 18.8365 37.1212 18.4405 36.893 18.1692C36.4081 17.5925 35.85 17.0774 35.2089 16.4215C35.8489 15.8371 36.448 15.326 37.0038 14.7714C37.4836 14.2929 37.481 13.7074 37.0597 13.3016C36.649 12.9058 36.0668 12.9382 35.5841 13.398C35.123 13.8373 34.6729 14.2881 34.2149 14.6717C34.2104 12.2725 34.152 9.93344 34.2278 7.59873C34.2776 6.06591 34.7356 4.60457 35.4902 3.2495C36.1552 2.05515 37.0036 1.0151 38.0417 0.12793ZM44.113 18.0222C43.2184 18.0223 42.3237 18.0134 41.4293 18.0255C40.7845 18.0342 40.3877 18.389 40.3445 18.9583C40.3004 19.5389 40.6332 19.9428 41.2685 20.0473C41.4764 20.0816 41.6933 20.0657 41.9061 20.0658C47.4866 20.0665 53.0671 20.0664 58.6475 20.0664C59.3504 20.0664 60.0533 20.0703 60.7562 20.0653C61.4617 20.0602 62.0755 19.5694 62.0634 19.0296C62.0517 18.5065 61.4569 18.0354 60.7905 18.0226C60.6628 18.0202 60.5349 18.0222 60.4071 18.0222C55.0183 18.0222 49.6296 18.0222 44.113 18.0222Z" fill="#F6F4FF"/>
<path d="M34.2125 29.3825C34.2141 31.8362 34.2157 34.2899 34.2083 36.8433C34.0056 37.2601 33.8283 37.1836 33.6089 36.95C33.1432 36.454 32.6679 35.9655 32.1743 35.4974C31.6889 35.0371 31.1181 35.0505 30.7093 35.4956C30.3474 35.8896 30.3767 36.4751 30.8077 36.9268C31.3595 37.5053 31.9282 38.0677 32.6216 38.7707C31.9886 39.3403 31.4044 39.8345 30.8577 40.3672C30.3461 40.8656 30.3256 41.4648 30.7534 41.8849C31.1932 42.3169 31.7319 42.2763 32.2637 41.7556C32.8069 41.2236 33.3399 40.6812 33.9017 40.119C34.027 40.2537 34.1249 40.3591 34.2229 40.4645C34.218 44.3831 34.0978 48.3061 34.2467 52.2188C34.355 55.0634 35.6439 57.4829 37.8142 59.3757C37.9671 59.5091 38.2407 59.5557 38.4583 59.556C45.8485 59.5645 53.2387 59.5721 60.6288 59.5454C61.2924 59.543 61.9552 59.308 62.6644 59.2315C62.0431 61.2415 60.8222 62.8064 59.1234 63.94C58.2861 64.4988 57.2785 64.8006 56.3549 65.2334C56.1973 65.3072 56.0747 65.4554 55.9358 65.5693C49.9259 65.5693 43.9159 65.5693 37.8274 65.5306C36.1017 63.6855 36.114 62.2802 37.878 59.6382C36.0694 59.6126 34.3373 59.5923 32.6056 59.5602C32.2258 59.5532 31.8406 59.538 31.4684 59.4696C29.2589 59.0637 27.4073 58.0207 25.9208 56.3279C24.4966 54.706 23.6192 52.8252 23.6143 50.67C23.5831 36.8026 23.5951 22.935 23.6095 9.06753C23.6101 8.4831 23.7762 7.89904 23.8624 7.31441C23.9023 7.04414 23.9356 6.7729 23.9899 6.45918C24.0421 6.36561 24.0863 6.31909 24.1086 6.26374C25.3489 3.19511 27.5319 1.19428 30.762 0.36942C30.8195 0.354738 30.8441 0.211293 30.8841 0.12793C33.23 0.12793 35.576 0.12793 37.9818 0.12793C37.0036 1.0151 36.1552 2.05515 35.4902 3.2495C34.7356 4.60457 34.2776 6.06591 34.2278 7.59873C34.152 9.93344 34.2104 12.2725 34.1984 14.7077C34.0201 15.0352 33.8716 15.0996 33.6408 14.8471C33.1967 14.3613 32.7307 13.894 32.2515 13.4427C32.0736 13.2751 31.8112 13.0406 31.6258 13.0709C31.266 13.1299 30.8312 13.2698 30.6139 13.5312C30.3058 13.9017 30.4227 14.3826 30.7679 14.7454C31.3333 15.3395 31.911 15.922 32.5938 16.6226C31.9906 17.177 31.4309 17.666 30.9013 18.1854C30.3594 18.7169 30.3171 19.3269 30.7529 19.7471C31.2119 20.1896 31.7485 20.1356 32.3113 19.5696C32.8325 19.0455 33.3392 18.5072 33.8941 17.9318C34.0734 18.1317 34.1961 18.2685 34.3188 18.4052C34.2817 18.5435 34.2125 18.6816 34.2121 18.82C34.2057 21.0046 34.2075 23.1893 34.2107 25.3739C34.2109 25.4558 34.2438 25.5377 34.2805 25.6982C34.1638 25.8948 34.0279 26.0127 33.9047 26.1196C33.281 25.5049 32.7217 24.9217 32.1265 24.3777C31.6928 23.9813 31.1223 24.0065 30.7447 24.3775C30.3769 24.7389 30.3639 25.3186 30.732 25.76C30.9359 26.0046 31.1646 26.2288 31.3851 26.4593C31.7464 26.8369 32.1101 27.2121 32.5879 27.7076C31.9652 28.273 31.3802 28.7683 30.8383 29.307C30.3525 29.7899 30.3451 30.445 30.7641 30.8353C31.1679 31.2114 31.7646 31.1622 32.238 30.6973C32.6934 30.2502 33.1439 29.7974 33.5812 29.3327C33.8295 29.0689 34.0283 29.0292 34.2125 29.3825Z" fill="#DFDEFF"/>
<path d="M23.9719 6.50195C23.9356 6.77275 23.9023 7.04399 23.8624 7.31426C23.7762 7.89889 23.6102 8.48295 23.6096 9.06738C23.5952 22.9349 23.5832 36.8024 23.6144 50.6699C23.6192 52.825 24.4966 54.7059 25.9208 56.3277C27.4073 58.0206 29.2589 59.0635 31.4685 59.4694C31.8407 59.5378 32.2258 59.5531 32.6056 59.5601C34.3374 59.5921 36.0694 59.6124 37.8781 59.638C36.114 62.2801 36.1017 63.6853 37.7675 65.5304C33.523 65.5691 29.2598 65.5691 24.9728 65.5261C24.5937 65.3427 24.2442 65.1844 23.8818 65.065C22.224 64.5187 20.902 63.4844 19.7822 62.1879C18.4443 60.6389 17.6154 58.8183 17.61 56.7742C17.5741 43.1247 17.5987 29.4751 17.5796 15.8255C17.5778 14.5117 17.7318 13.2413 18.2436 12.0432C18.8688 10.5794 19.7202 9.28311 20.9922 8.24679C21.9094 7.49949 22.9305 7.00027 23.9719 6.50195Z" fill="#C3C3F4"/>
<path d="M59.4721 0.12793C59.6072 0.284143 59.672 0.467949 59.7962 0.592535C62.8857 3.69096 65.9814 6.78313 69.0909 9.9163C68.9082 10.0029 68.7108 10.0882 68.5128 10.09C67.1511 10.1018 65.7887 10.1225 64.4278 10.0906C61.7353 10.0275 59.8743 8.65136 59.3202 6.11235C59.271 5.8872 59.2622 5.64982 59.2616 5.41805C59.2569 3.69462 59.259 1.97117 59.259 0.187831C59.3158 0.127929 59.3726 0.127929 59.4721 0.12793Z" fill="#DFDEFF"/>
<path d="M63.9071 38.4562C63.7118 38.6131 63.5001 38.7536 63.3236 38.9294C60.8738 41.3694 58.4949 43.9267 55.9718 46.3671C54.476 44.9337 52.9911 43.391 51.5906 41.9197C51.7681 41.7079 51.9223 41.5325 52.087 41.3677C55.2106 38.2421 58.336 35.1184 61.4586 31.9918C61.6373 31.8128 61.795 31.613 61.9912 31.4272C62.0198 31.4316 62.0777 31.4366 62.0947 31.4755C62.2884 31.6978 62.4637 31.8825 62.642 32.0642C63.8598 33.3054 65.2191 34.503 66.4321 35.7879C65.634 36.6925 64.7001 37.5958 63.9071 38.4562Z" fill="#FFEBA7"/>
<path d="M63.893 38.5093C64.7001 37.5959 65.4931 36.7355 66.3344 35.8272C67.4012 34.7906 68.4237 33.8059 69.4345 32.8093C69.6099 32.6365 69.7362 32.4138 69.9281 32.2085C70.4474 31.7572 70.9208 31.3083 71.4009 30.8667C72.126 30.1996 72.7873 29.5225 73.5152 28.8584C74.0424 28.9462 74.68 28.9519 75.1569 29.1568C76.2381 29.6214 76.6419 31.4269 75.3195 32.7164C73.2945 34.691 71.3115 36.7086 69.271 38.7263C68.5296 39.406 67.8377 40.0784 67.1237 40.7264C65.9445 41.7967 64.1763 41.316 63.8125 39.8026C63.7198 39.4168 63.8507 38.9773 63.893 38.5093Z" fill="#FFE17B"/>
<path d="M62.0451 31.3874C61.8776 31.5775 61.6373 31.8132 61.4586 31.9922C58.336 35.1187 55.2106 38.2425 52.087 41.368C51.9223 41.5329 51.7681 41.7083 51.5619 41.913C51.5148 41.9471 51.4564 41.9372 51.4385 41.8982C50.5817 41.0225 49.7428 40.1858 48.9038 39.3491C51.2362 37.0043 53.5687 34.6594 55.9011 32.3145C56.2451 31.9686 56.5889 31.6225 56.9898 31.2202C57.7042 30.4925 58.2869 29.7915 58.9442 29.1201C59.0455 29.0355 59.3988 28.8222 59.5722 28.7422C60.4762 29.5861 61.2133 30.548 62.0451 31.3874Z" fill="#FFE17B"/>
<path d="M51.4562 41.937C51.4562 41.937 51.5146 41.9469 51.5433 41.954C52.9909 43.3912 54.4097 44.8213 55.8645 46.2743C54.0307 48.4504 51.8743 50.1833 49.0654 50.961C48.1089 51.2258 47.1535 51.4949 46.1455 51.7015C46.4467 50.4687 46.7121 49.2603 47.1776 48.1346C47.6582 46.9724 48.235 45.8222 48.9511 44.7928C49.6697 43.7599 50.612 42.8826 51.4562 41.937Z" fill="#C3C3F4"/>
<path d="M44.1768 18.0221C49.6295 18.0221 55.0183 18.0221 60.4071 18.0221C60.5349 18.0221 60.6627 18.0201 60.7905 18.0225C61.4569 18.0353 62.0517 18.5064 62.0634 19.0295C62.0755 19.5693 61.4616 20.0601 60.7562 20.0651C60.0533 20.0702 59.3504 20.0663 58.6475 20.0663C53.067 20.0663 47.4865 20.0664 41.9061 20.0657C41.6933 20.0656 41.4764 20.0815 41.2685 20.0472C40.6332 19.9426 40.3004 19.5388 40.3445 18.9582C40.3876 18.3889 40.7844 18.0341 41.4292 18.0254C42.3237 18.0133 43.2184 18.0222 44.1768 18.0221Z" fill="#E0DFFF"/>
<path d="M51.4383 41.8981C50.6119 42.8827 49.6697 43.76 48.9511 44.7929C48.235 45.8223 47.6582 46.9725 47.1776 48.1347C46.712 49.2604 46.4467 50.4689 46.0927 51.6928C44.3786 51.6499 43.1102 50.1522 43.5451 48.5249C44.1181 46.3809 44.7311 44.2287 46.1174 42.3239C46.7873 41.5544 47.4081 40.8487 48.0289 40.1431C48.295 39.8918 48.5612 39.6405 48.8655 39.3691C49.7426 40.1857 50.5815 41.0224 51.4383 41.8981Z" fill="#9A9FCF"/>
<path d="M69.1943 19.822C70.8394 19.278 72.3349 19.5839 73.6151 20.602C74.2542 21.1102 74.6831 21.8825 75.1613 22.5784C74.158 22.3034 73.1924 22.2224 72.1899 22.4135C71.0688 22.6271 70.2176 23.2758 69.433 24.0294C68.1148 25.2952 66.792 26.6237 65.4516 27.8857C64.5819 27.0245 63.7106 26.1649 62.8787 25.3238C64.3603 23.8361 65.8838 22.3015 67.4114 20.8625C67.8884 20.4131 68.5674 20.1781 69.1943 19.822Z" fill="#FFE17B"/>
<path d="M58.9578 29.147C58.3615 29.821 57.7341 30.5031 57.0383 31.1928C56.7592 31.1644 56.4887 31.0668 56.2479 31.0664C51.3131 31.0584 46.3782 31.0536 41.4434 31.0702C40.919 31.072 40.5579 30.865 40.3847 30.427C40.2156 29.9997 40.3431 29.5652 40.7623 29.3191C40.9651 29.2001 41.2359 29.1492 41.476 29.1489C47.283 29.1407 53.0899 29.1435 58.9578 29.147Z" fill="#DFDEFF"/>
<path d="M34.2611 40.4872C34.1249 40.3589 34.0269 40.2535 33.9016 40.1188C33.3399 40.681 32.8068 41.2234 32.2636 41.7554C31.7319 42.2761 31.1932 42.3167 30.7533 41.8847C30.3256 41.4646 30.346 40.8654 30.8576 40.367C31.4044 39.8343 31.9886 39.3401 32.6215 38.7705C31.9282 38.0675 31.3594 37.5051 30.8076 36.9266C30.3766 36.4749 30.3474 35.8894 30.7092 35.4954C31.118 35.0503 31.6888 35.0369 32.1742 35.4972C32.6678 35.9653 33.1431 36.4538 33.6089 36.9498C33.8282 37.1834 34.0055 37.2599 34.2147 36.9065C34.6834 36.4226 35.1299 35.9682 35.5914 35.5295C36.0858 35.0595 36.6413 35.0375 37.0609 35.4514C37.4894 35.8741 37.4934 36.4297 36.9961 36.9141C36.4335 37.4621 35.8203 37.9581 35.1654 38.5326C35.8778 39.263 36.4328 39.8363 36.9927 40.4046C37.4048 40.8229 37.505 41.2785 37.1527 41.7768C36.7997 42.2761 36.1478 42.3223 35.6513 41.8624C35.184 41.4296 34.7487 40.9623 34.2611 40.4872Z" fill="#21232D"/>
<path d="M34.3575 18.425C34.1961 18.2682 34.0734 18.1314 33.8941 17.9315C33.3392 18.5069 32.8324 19.0453 32.3113 19.5693C31.7485 20.1353 31.2119 20.1893 30.7529 19.7468C30.317 19.3266 30.3593 18.7166 30.9012 18.1852C31.4309 17.6657 31.9905 17.1768 32.5937 16.6223C31.9109 15.9217 31.3333 15.3393 30.7679 14.7451C30.4226 14.3823 30.3058 13.9014 30.6139 13.5309C30.8312 13.2695 31.2659 13.1296 31.6257 13.0707C31.8112 13.0403 32.0735 13.2749 32.2515 13.4425C32.7307 13.8938 33.1967 14.3611 33.6408 14.8468C33.8716 15.0993 34.0201 15.035 34.2014 14.7695C34.6728 14.2878 35.123 13.837 35.5841 13.3978C36.0667 12.9379 36.6489 12.9055 37.0597 13.3013C37.4809 13.7071 37.4835 14.2926 37.0038 14.7712C36.4479 15.3257 35.8488 15.8368 35.2089 16.4213C35.85 17.0772 36.4081 17.5922 36.893 18.1689C37.1211 18.4402 37.347 18.8362 37.3321 19.1647C37.296 19.9614 36.3315 20.2997 35.7008 19.7556C35.2354 19.3542 34.829 18.8844 34.3575 18.425Z" fill="#21232D"/>
<path d="M34.2512 29.4014C34.0282 29.0293 33.8295 29.069 33.5812 29.3329C33.1438 29.7976 32.6933 30.2503 32.238 30.6974C31.7645 31.1623 31.1678 31.2115 30.7641 30.8354C30.3451 30.4451 30.3525 29.79 30.8383 29.3071C31.3801 28.7684 31.9652 28.2732 32.5878 27.7078C32.1101 27.2122 31.7463 26.837 31.3851 26.4594C31.1645 26.2289 30.9359 26.0047 30.732 25.7602C30.3639 25.3187 30.3768 24.739 30.7447 24.3776C31.1223 24.0066 31.6927 23.9814 32.1265 24.3778C32.7217 24.9218 33.281 25.505 33.9047 26.1197C34.0278 26.0128 34.1637 25.8949 34.318 25.7369C34.7605 25.2822 35.18 24.8626 35.6099 24.454C36.0769 24.0102 36.6183 23.9767 37.0312 24.3523C37.4733 24.7543 37.5073 25.3301 37.0302 25.8175C36.4679 26.3921 35.8443 26.9067 35.0671 27.6104C35.7789 28.2398 36.3664 28.7234 36.9112 29.2511C37.4794 29.8016 37.5137 30.3641 37.0669 30.8122C36.6474 31.2328 36.0364 31.1677 35.5031 30.6394C35.0958 30.236 34.6941 29.8268 34.2512 29.4014Z" fill="#21232D"/>
<path d="M62.9128 25.3267C63.7816 26.149 64.6136 26.9901 65.4865 27.8798C65.5275 27.9284 65.5343 27.9856 65.4951 28.005C64.3299 29.1619 63.238 30.3215 62.1119 31.459C62.1119 31.459 62.0198 31.4319 61.9912 31.4275C61.1307 30.5838 60.1408 29.8318 59.2722 28.9694C60.3963 27.7752 61.7151 26.5166 62.9128 25.3267Z" fill="#F7D565"/>
<path d="M47.968 40.1405C47.4082 40.8488 46.7875 41.5544 46.1304 42.282C45.8733 42.2623 45.6527 42.1866 45.4316 42.1847C44.0952 42.1734 42.7586 42.1865 41.4222 42.1756C40.7841 42.1704 40.3792 41.8101 40.3467 41.2429C40.3133 40.6602 40.5888 40.3223 41.1769 40.2509C41.4689 40.2154 41.7602 40.1422 42.052 40.1408C44.0036 40.1316 45.9553 40.1371 47.968 40.1405Z" fill="#DFDEFF"/>
<path d="M65.4683 27.9972C65.4683 27.9972 65.4128 27.875 65.4682 27.775C66.7676 26.4644 68.1149 25.2954 69.433 24.0295C70.2176 23.276 71.0688 22.6273 72.1899 22.4137C73.1924 22.2226 74.1196 22.2307 75.1266 22.5507C76.0327 24.4014 75.6121 26.6576 74.1863 28.208C74.0005 28.4101 73.7988 28.5977 73.594 28.8329C72.8557 29.5378 72.1259 30.1997 71.4007 30.8668C70.9206 31.3084 70.4856 31.7976 69.9254 32.2318C68.4186 30.8222 66.8913 29.3954 65.4683 27.9972Z" fill="#FFEBA7"/>
<path d="M65.4951 28.0049C66.9573 29.3837 68.5338 30.7498 69.9977 32.1651C69.8896 32.3819 69.6099 32.6365 69.4345 32.8094C68.4237 33.8059 67.4315 34.8313 66.3698 35.8237C65.1085 34.5866 63.8598 33.3055 62.642 32.0643C62.4637 31.8826 62.1224 31.5649 61.9287 31.3427C63.0378 30.1663 64.3299 29.1618 65.4951 28.0049Z" fill="#F6D565"/>
</g>
<path fill-rule="evenodd" clip-rule="evenodd" d="M17.5689 66.8643C15.3179 66.8643 13.1175 66.1968 11.2459 64.9462C9.3743 63.6957 7.91555 61.9182 7.05415 59.8386C6.19274 57.7589 5.96735 55.4706 6.4065 53.2629C6.84564 51.0552 7.92958 49.0272 9.52126 47.4356C11.1129 45.8439 13.1409 44.7599 15.3486 44.3208C17.5563 43.8817 19.8446 44.107 21.9243 44.9684C24.0039 45.8299 25.7814 47.2886 27.0319 49.1602C28.2825 51.0318 28.95 53.2322 28.95 55.4832C28.95 58.5017 27.7509 61.3965 25.6166 63.5309C23.4822 65.6652 20.5874 66.8643 17.5689 66.8643ZM18.9915 54.0606H23.2595C23.6368 54.0606 23.9986 54.2105 24.2654 54.4773C24.5322 54.7441 24.6821 55.1059 24.6821 55.4832C24.6821 55.8605 24.5322 56.2224 24.2654 56.4892C23.9986 56.756 23.6368 56.9058 23.2595 56.9058H18.9915V61.1738C18.9915 61.5511 18.8417 61.9129 18.5749 62.1797C18.3081 62.4465 17.9462 62.5964 17.5689 62.5964C17.1916 62.5964 16.8298 62.4465 16.563 62.1797C16.2962 61.9129 16.1463 61.5511 16.1463 61.1738V56.9058H11.8784C11.5011 56.9058 11.1392 56.756 10.8724 56.4892C10.6056 56.2224 10.4557 55.8605 10.4557 55.4832C10.4557 55.1059 10.6056 54.7441 10.8724 54.4773C11.1392 54.2105 11.5011 54.0606 11.8784 54.0606H16.1463V49.7927C16.1463 49.4154 16.2962 49.0535 16.563 48.7867C16.8298 48.5199 17.1916 48.37 17.5689 48.37C17.9462 48.37 18.3081 48.5199 18.5749 48.7867C18.8417 49.0535 18.9915 49.4154 18.9915 49.7927V54.0606Z" fill="#FFEBA7"/>
<path fill-rule="evenodd" clip-rule="evenodd" d="M9.66516 43.6544C12.0047 42.0912 14.7552 41.2568 17.5689 41.2568C19.4371 41.2568 21.2871 41.6248 23.0131 42.3398C24.7391 43.0547 26.3074 44.1026 27.6285 45.4236C28.9495 46.7447 29.9974 48.313 30.7124 50.039C31.4273 51.765 31.7953 53.615 31.7953 55.4832C31.7953 58.2969 30.9609 61.0474 29.3977 63.387C27.8345 65.7265 25.6126 67.5499 23.0131 68.6267C20.4136 69.7034 17.5531 69.9852 14.7935 69.4362C12.0338 68.8873 9.49894 67.5324 7.50934 65.5428C5.51975 63.5532 4.16482 61.0183 3.61589 58.2586C3.06696 55.499 3.34869 52.6385 4.42545 50.039C5.50221 47.4395 7.32564 45.2176 9.66516 43.6544ZM11.2459 64.9462C13.1175 66.1968 15.3179 66.8643 17.5689 66.8643C20.5874 66.8643 23.4822 65.6652 25.6166 63.5309C27.7509 61.3965 28.95 58.5017 28.95 55.4832C28.95 53.2322 28.2825 51.0318 27.0319 49.1602C25.7814 47.2886 24.0039 45.8299 21.9243 44.9684C19.8446 44.107 17.5563 43.8817 15.3486 44.3208C13.1409 44.7599 11.1129 45.8439 9.52126 47.4356C7.92958 49.0272 6.84564 51.0552 6.4065 53.2629C5.96735 55.4706 6.19274 57.7589 7.05415 59.8386C7.91555 61.9182 9.3743 63.6957 11.2459 64.9462Z" fill="#FFEBA7"/>
<path d="M23.2595 54.0606H18.9915V49.7927C18.9915 49.4154 18.8417 49.0535 18.5749 48.7867C18.3081 48.5199 17.9462 48.37 17.5689 48.37C17.1916 48.37 16.8298 48.5199 16.563 48.7867C16.2962 49.0535 16.1463 49.4154 16.1463 49.7927V54.0606H11.8784C11.5011 54.0606 11.1392 54.2105 10.8724 54.4773C10.6056 54.7441 10.4557 55.1059 10.4557 55.4832C10.4557 55.8605 10.6056 56.2224 10.8724 56.4892C11.1392 56.756 11.5011 56.9058 11.8784 56.9058H16.1463V61.1738C16.1463 61.5511 16.2962 61.9129 16.563 62.1797C16.8298 62.4465 17.1916 62.5964 17.5689 62.5964C17.9462 62.5964 18.3081 62.4465 18.5749 62.1797C18.8417 61.9129 18.9915 61.5511 18.9915 61.1738V56.9058H23.2595C23.6368 56.9058 23.9986 56.756 24.2654 56.4892C24.5322 56.2224 24.6821 55.8605 24.6821 55.4832C24.6821 55.1059 24.5322 54.7441 24.2654 54.4773C23.9986 54.2105 23.6368 54.0606 23.2595 54.0606Z" fill="#21232D"/>
<defs>
<clipPath id="clip0_2804_233">
<rect width="65.4413" height="65.4413" fill="white" transform="translate(14.0125)"/>
</clipPath>
</defs>
</svg>
