<svg width="31" height="31" viewBox="0 0 31 31" fill="none" xmlns="http://www.w3.org/2000/svg">
<path d="M11.2201 13.1251C10.7256 13.1251 10.2423 13.2717 9.83117 13.5464C9.42005 13.8211 9.09961 14.2115 8.9104 14.6684C8.72118 15.1252 8.67167 15.6278 8.76813 16.1128C8.86459 16.5977 9.1027 17.0432 9.45233 17.3928C9.80196 17.7425 10.2474 17.9806 10.7324 18.077C11.2173 18.1735 11.72 18.124 12.1768 17.9348C12.6336 17.7455 13.0241 17.4251 13.2988 17.014C13.5735 16.6029 13.7201 16.1195 13.7201 15.6251C13.7201 14.962 13.4567 14.3261 12.9879 13.8573C12.519 13.3885 11.8831 13.1251 11.2201 13.1251ZM11.2201 21.8751C10.7256 21.8751 10.2423 22.0217 9.83117 22.2964C9.42005 22.5711 9.09961 22.9615 8.9104 23.4184C8.72118 23.8752 8.67167 24.3778 8.76813 24.8628C8.86459 25.3477 9.1027 25.7932 9.45233 26.1428C9.80196 26.4925 10.2474 26.7306 10.7324 26.827C11.2173 26.9235 11.72 26.874 12.1768 26.6848C12.6336 26.4955 13.0241 26.1751 13.2988 25.764C13.5735 25.3529 13.7201 24.8695 13.7201 24.3751C13.7201 23.712 13.4567 23.0761 12.9879 22.6073C12.519 22.1385 11.8831 21.8751 11.2201 21.8751ZM19.9701 9.37506C20.4645 9.37506 20.9479 9.22844 21.359 8.95374C21.7701 8.67903 22.0906 8.28859 22.2798 7.83177C22.469 7.37496 22.5185 6.87229 22.4221 6.38734C22.3256 5.90238 22.0875 5.45693 21.7379 5.1073C21.3882 4.75766 20.9428 4.51956 20.4578 4.4231C19.9729 4.32664 19.4702 4.37614 19.0134 4.56536C18.5566 4.75458 18.1661 5.07501 17.8914 5.48614C17.6167 5.89726 17.4701 6.38061 17.4701 6.87506C17.4701 7.5381 17.7335 8.17399 18.2023 8.64283C18.6712 9.11167 19.3071 9.37506 19.9701 9.37506ZM11.2201 4.37506C10.7256 4.37506 10.2423 4.52168 9.83117 4.79639C9.42005 5.07109 9.09961 5.46154 8.9104 5.91835C8.72118 6.37517 8.67167 6.87784 8.76813 7.36279C8.86459 7.84774 9.1027 8.2932 9.45233 8.64283C9.80196 8.99246 10.2474 9.23056 10.7324 9.32703C11.2173 9.42349 11.72 9.37398 12.1768 9.18476C12.6336 8.99554 13.0241 8.67511 13.2988 8.26399C13.5735 7.85286 13.7201 7.36952 13.7201 6.87506C13.7201 6.21202 13.4567 5.57614 12.9879 5.1073C12.519 4.63845 11.8831 4.37506 11.2201 4.37506ZM19.9701 21.8751C19.4756 21.8751 18.9923 22.0217 18.5812 22.2964C18.17 22.5711 17.8496 22.9615 17.6604 23.4184C17.4712 23.8752 17.4217 24.3778 17.5181 24.8628C17.6146 25.3477 17.8527 25.7932 18.2023 26.1428C18.552 26.4925 18.9974 26.7306 19.4824 26.827C19.9673 26.9235 20.47 26.874 20.9268 26.6848C21.3836 26.4955 21.7741 26.1751 22.0488 25.764C22.3235 25.3529 22.4701 24.8695 22.4701 24.3751C22.4701 23.712 22.2067 23.0761 21.7379 22.6073C21.269 22.1385 20.6331 21.8751 19.9701 21.8751ZM19.9701 13.1251C19.4756 13.1251 18.9923 13.2717 18.5812 13.5464C18.17 13.8211 17.8496 14.2115 17.6604 14.6684C17.4712 15.1252 17.4217 15.6278 17.5181 16.1128C17.6146 16.5977 17.8527 17.0432 18.2023 17.3928C18.552 17.7425 18.9974 17.9806 19.4824 18.077C19.9673 18.1735 20.47 18.124 20.9268 17.9348C21.3836 17.7455 21.7741 17.4251 22.0488 17.014C22.3235 16.6029 22.4701 16.1195 22.4701 15.6251C22.4701 14.962 22.2067 14.3261 21.7379 13.8573C21.269 13.3885 20.6331 13.1251 19.9701 13.1251Z" fill="#C4C3CA"/>
</svg>
