<svg width="58" height="59" viewBox="0 0 58 59" fill="none" xmlns="http://www.w3.org/2000/svg">
<g clip-path="url(#clip0_2805_447)">
<path d="M57.4428 25.8863C57.4428 28.2676 57.4428 30.6489 57.4031 33.0471C57.3165 33.1398 57.2421 33.2102 57.2269 33.2921C56.9974 34.5254 56.8323 35.7746 56.5346 36.9902C56.2878 37.998 55.8869 38.9667 55.5254 39.9145C55.4824 39.6708 55.4563 39.4652 55.4558 39.2597C55.4506 36.9403 55.4798 34.6202 55.436 32.3016C55.4085 30.8488 54.7417 29.6705 53.67 28.7267C52.6194 27.8016 51.3618 27.4921 50.0127 27.4893C45.7318 27.4804 41.4509 27.4807 37.1995 27.4479C39.5784 26.8309 41.241 24.7155 41.2084 22.1126C41.148 17.2822 41.1854 12.4504 41.1945 7.61923C41.1975 6.03809 41.3044 4.44726 40.566 2.99414C41.4087 3.40873 42.2176 3.79844 43.0069 4.22571C44.7831 5.1873 46.4323 6.36044 47.8838 7.76131C49.252 9.08172 50.5425 10.506 51.7234 12.002C53.4977 14.2498 54.813 16.7885 55.7682 19.5059C56.4705 21.5039 57.0456 23.5387 57.2292 25.6678C57.2359 25.7464 57.3688 25.8137 57.4428 25.8863Z" fill="#FFEBA7"/>
<path d="M40.5233 2.98622C41.3043 4.44717 41.1974 6.038 41.1945 7.61915C41.1854 12.4503 41.148 17.2821 41.2084 22.1126C41.2409 24.7154 39.5784 26.8308 37.1487 27.4496C36.5426 27.4861 36.0166 27.4913 35.441 27.4919C34.9107 27.4897 34.43 27.4921 33.9076 27.4883C33.7083 27.513 33.5507 27.5441 33.351 27.5781C33.1684 27.5834 33.028 27.5858 32.8309 27.5863C30.1508 27.5859 27.5273 27.5875 24.8581 27.5924C24.6295 27.5891 24.4466 27.5825 24.2226 27.5587C23.445 27.5422 22.7084 27.5429 21.9202 27.5296C21.5177 27.5033 21.1667 27.4909 20.7903 27.4473C20.6443 27.3681 20.5258 27.3139 20.4031 27.2732C18.7346 26.7199 17.5718 25.6141 17.1261 23.8855C16.8953 22.9906 16.824 22.0305 16.8252 21.1C16.8319 15.7988 16.8545 10.4973 16.9328 5.19687C16.9592 3.41275 17.9247 2.10643 19.4164 1.23998C19.983 0.910893 20.6435 0.749211 21.2611 0.51123C26.6814 0.511231 32.1017 0.511231 37.5399 0.545873C37.6277 0.632395 37.6906 0.703321 37.7687 0.733295C38.9292 1.17875 39.9225 1.8332 40.5233 2.98622ZM30.7797 23.8454C32.468 23.8453 34.1563 23.8481 35.8446 23.8444C36.9716 23.8419 37.5173 23.2909 37.5174 22.1645C37.518 16.7464 37.518 11.3283 37.5174 5.91018C37.5173 4.75058 37.0309 4.25029 35.8988 4.24979C32.7263 4.24839 29.5538 4.24927 26.3812 4.24928C24.2105 4.24929 22.0398 4.24625 19.8691 4.25089C18.991 4.25277 18.3689 4.78625 18.3679 5.57187C18.3609 11.2165 18.359 16.8612 18.3794 22.5057C18.3805 22.7907 18.5269 23.1925 18.7385 23.3336C19.1182 23.5869 19.5976 23.8191 20.0378 23.8239C23.581 23.8622 27.1248 23.8453 30.7797 23.8454Z" fill="#F6F4FF"/>
<path d="M0.442871 33.1364C0.442871 30.7174 0.442871 28.2983 0.48261 25.8614C0.569253 25.7671 0.644475 25.6959 0.658716 25.6137C0.814978 24.712 0.918279 23.7984 1.1191 22.9075C1.75945 20.0666 2.79006 17.3687 4.24388 14.8606C5.89094 12.0192 7.92006 9.47373 10.454 7.4009C11.8389 6.26805 13.3453 5.28913 14.8005 4.28955C14.7646 4.6925 14.6914 5.04665 14.6909 5.40089C14.6837 11.1527 14.6716 16.9046 14.6952 22.6564C14.7016 24.1966 15.368 25.479 16.5815 26.3864C17.1939 26.8444 17.9385 27.1196 18.5686 27.4882C15.3441 27.5034 12.1743 27.5079 8.95418 27.5011C7.89777 27.5799 6.84738 27.513 5.8946 27.7917C3.70036 28.4334 2.38178 30.4443 2.36438 32.8931C2.34767 35.2451 2.34191 37.5972 2.29338 39.9292C2.24555 39.8733 2.23829 39.8364 2.22543 39.8016C1.44735 37.6977 0.885965 35.5401 0.654842 33.2988C0.648552 33.2378 0.516355 33.1902 0.442871 33.1364Z" fill="#FFEBA7"/>
<path d="M43.4245 54.5585C40.7424 56.2047 37.8606 57.3263 34.7897 57.9417C34.0844 58.083 33.3687 58.1701 32.6594 58.2919C32.579 58.3057 32.5091 58.3827 32.4699 58.4708C30.1652 58.5113 27.825 58.5113 25.4326 58.5113C25.3098 58.4359 25.2457 58.3026 25.1676 58.2935C22.4647 57.9777 19.878 57.2317 17.4024 56.0963C16.4135 55.6427 15.4574 55.115 14.522 54.5774C17.6462 54.5334 20.7349 54.5428 23.8234 54.5294C26.1634 54.5192 28.064 53.0556 28.7407 50.7863C28.7869 50.6313 28.8732 50.4887 28.9743 50.3657C29.3952 51.9126 30.1964 53.1145 31.5677 53.9005C32.7704 54.59 34.073 54.582 35.4405 54.5359C38.1369 54.5479 40.7807 54.5532 43.4245 54.5585Z" fill="#FFEBA7"/>
<path d="M14.8005 4.28937C15.3256 2.5085 16.3972 1.30847 18.1093 0.731681C18.1881 0.705148 18.2521 0.633364 18.2892 0.546943C19.2226 0.511231 20.1897 0.511231 21.2091 0.51123C20.6436 0.749211 19.9831 0.910893 19.4165 1.23998C17.9248 2.10643 16.9593 3.41275 16.933 5.19687C16.8546 10.4973 16.832 15.7988 16.8253 21.1C16.8242 22.0304 16.8954 22.9906 17.1262 23.8855C17.5719 25.6141 18.7347 26.7199 20.4032 27.2732C20.526 27.3139 20.6444 27.3681 20.7533 27.4616C20.7175 27.5177 20.6932 27.5283 20.6218 27.5248C19.9719 27.5169 19.369 27.5231 18.7308 27.5154C18.6713 27.4935 18.6473 27.4853 18.6233 27.4772C17.9385 27.1194 17.194 26.8443 16.5815 26.3863C15.368 25.4788 14.7016 24.1964 14.6953 22.6562C14.6717 16.9044 14.6838 11.1525 14.6909 5.40071C14.6914 5.04647 14.7646 4.69232 14.8005 4.28937Z" fill="#DFDEFF"/>
<path d="M43.4759 54.553C40.7805 54.5531 38.1367 54.5478 35.4121 54.5089C35.209 54.4315 35.0889 54.3799 34.9642 54.3452C32.611 53.6898 31.1686 51.7973 31.1671 49.3389C31.1637 43.7328 31.1491 38.1266 31.1765 32.5206C31.1855 30.6665 32.0444 29.23 33.6054 28.2865C34.1835 27.9371 34.8593 27.7549 35.4906 27.4965C36.0166 27.4912 36.5426 27.486 37.1194 27.479C41.4509 27.4805 45.7318 27.4803 50.0127 27.4891C51.3618 27.4919 52.6195 27.8014 53.67 28.7266C54.7417 29.6703 55.4085 30.8487 55.436 32.3015C55.4798 34.6201 55.4506 36.9401 55.4558 39.2595C55.4563 39.4651 55.4824 39.6706 55.5254 39.9143C55.5529 43.0822 55.562 46.2119 55.5457 49.3415C55.5381 50.8043 55.0462 52.0917 53.9998 53.1134C53.0533 54.0376 51.9342 54.5621 50.5867 54.5516C48.2338 54.5332 45.8806 54.5472 43.4759 54.553ZM32.6126 42.8217C32.6127 44.9733 32.6086 47.1249 32.615 49.2764C32.6177 50.1793 33.1919 50.8038 34.044 50.8049C39.4786 50.8114 44.9132 50.8118 50.3478 50.8047C51.2413 50.8035 51.8641 50.1843 51.8657 49.2768C51.8752 43.8035 51.8757 38.3302 51.8659 32.8569C51.8641 31.851 51.1943 31.2149 50.1996 31.2145C44.8948 31.2126 39.59 31.2123 34.2852 31.2146C33.1578 31.2151 32.6138 31.771 32.6133 32.913C32.6116 36.1782 32.6126 39.4433 32.6126 42.8217Z" fill="#F6F4FF"/>
<path d="M30.724 23.8456C27.1248 23.8456 23.581 23.8624 20.0378 23.8241C19.5976 23.8193 19.1182 23.5871 18.7385 23.3338C18.5269 23.1927 18.3804 22.7909 18.3794 22.5059C18.359 16.8614 18.3609 11.2167 18.3679 5.57209C18.3689 4.78647 18.9909 4.25299 19.8691 4.25111C22.0398 4.24648 24.2105 4.24951 26.3812 4.2495C29.5537 4.24949 32.7263 4.24861 35.8988 4.25002C37.0309 4.25052 37.5173 4.7508 37.5174 5.9104C37.5179 11.3285 37.5179 16.7466 37.5174 22.1647C37.5173 23.2911 36.9716 23.8421 35.8446 23.8446C34.1563 23.8483 32.468 23.8456 30.724 23.8456ZM29.8806 20.5728C32.8029 19.1903 33.4276 15.7808 31.1593 13.486C30.8888 13.2123 30.9541 13.0423 31.0917 12.7668C32.3789 10.1879 30.6487 7.23837 27.8155 7.1832C26.7769 7.16298 25.7377 7.17133 24.6988 7.18004C23.8075 7.18752 23.3633 7.63457 23.3618 8.54213C23.356 12.2044 23.3557 15.8668 23.362 19.5291C23.3635 20.4152 23.833 20.8823 24.7129 20.892C25.5847 20.9017 26.4587 20.9283 27.3281 20.8798C28.1542 20.8337 28.9756 20.7 29.8806 20.5728Z" fill="#DFDEFF"/>
<path d="M18.5685 27.4883C18.6473 27.4856 18.6713 27.4937 18.7636 27.5355C19.4442 27.5592 20.0565 27.5492 20.6688 27.5391C20.6931 27.5285 20.7174 27.5179 20.7788 27.493C21.1668 27.4911 21.5178 27.5035 21.9588 27.5436C22.7872 27.5728 23.5254 27.5745 24.2637 27.5761C24.4466 27.5827 24.6295 27.5893 24.8931 27.6182C26.7462 28.1041 27.9826 29.1861 28.6323 30.9375C28.747 31.2465 28.8335 31.5664 28.9245 31.9221C28.925 32.2964 28.9419 32.63 28.942 32.9637C28.9436 38.3285 28.9432 43.6933 28.943 49.0581C28.943 49.4856 28.9415 49.9131 28.9408 50.3406C28.8731 50.489 28.7867 50.6315 28.7405 50.7865C28.0639 53.0558 26.1632 54.5194 23.8233 54.5296C20.7347 54.543 17.6461 54.5336 14.5044 54.5398C12.6893 53.5186 11.0706 52.2948 9.62691 50.846C14.3023 50.8094 18.9402 50.7859 23.5777 50.826C24.6311 50.8351 25.2931 50.1451 25.286 49.1005C25.2499 43.7398 25.2458 38.3785 25.2861 33.0179C25.2959 31.708 24.5016 31.1946 23.4804 31.1995C18.2862 31.2241 13.0916 31.2384 7.8977 31.1903C6.6835 31.1791 5.98573 32.0405 5.99447 33.1529C6.03009 37.6829 6.00678 42.2135 6.00518 46.7438C5.48785 45.975 4.97052 45.2061 4.48022 44.3625C4.52573 44.0645 4.56009 43.8412 4.5603 43.6179C4.56368 40.0693 4.54772 36.5206 4.57125 32.9721C4.57895 31.8119 4.83134 30.7053 5.51298 29.7232C6.37683 28.4786 7.5969 27.8504 9.00449 27.5124C12.1743 27.5079 15.344 27.5035 18.5685 27.4883Z" fill="#F6F4FF"/>
<path d="M28.9741 50.3659C28.9415 49.913 28.943 49.4855 28.943 49.058C28.9431 43.6932 28.9436 38.3284 28.9419 32.9636C28.9418 32.63 28.925 32.2963 28.9278 31.8794C29.2514 30.8775 29.5641 29.9711 30.2352 29.227C30.971 28.4112 31.8885 27.9414 32.8876 27.5884C33.028 27.586 33.1684 27.5836 33.3931 27.5812C33.6346 27.5524 33.7919 27.5236 33.9493 27.4947C34.43 27.4923 34.9107 27.4899 35.441 27.4921C34.8593 27.7552 34.1835 27.9374 33.6053 28.2868C32.0444 29.2302 31.1855 30.6668 31.1764 32.5209C31.1491 38.1268 31.1636 43.733 31.1671 49.3391C31.1686 51.7975 32.611 53.69 34.9642 54.3454C35.0888 54.3802 35.209 54.4318 35.3595 54.5025C34.0729 54.5821 32.7703 54.5901 31.5675 53.9006C30.1963 53.1146 29.395 51.9127 28.9741 50.3659Z" fill="#DFDEFF"/>
<path d="M32.8309 27.5865C31.8885 27.9414 30.971 28.4112 30.2352 29.227C29.5641 29.9711 29.2514 30.8775 28.9363 31.8386C28.8334 31.5664 28.7469 31.2465 28.6323 30.9374C27.9826 29.186 26.7462 28.104 24.9387 27.6148C27.5273 27.5876 30.1508 27.5861 32.8309 27.5865Z" fill="#FFEBA7"/>
<path d="M24.2228 27.5589C23.5255 27.5747 22.7873 27.573 22.0105 27.5574C22.7085 27.5428 23.4452 27.5421 24.2228 27.5589Z" fill="#E53B52"/>
<path d="M33.9077 27.4883C33.7921 27.5234 33.6347 27.5522 33.4353 27.5781C33.5509 27.5441 33.7085 27.513 33.9077 27.4883Z" fill="#BD80E1"/>
<path d="M8.95413 27.501C7.59689 27.8503 6.37681 28.4784 5.51296 29.7231C4.83133 30.7051 4.57893 31.8117 4.57124 32.972C4.54771 36.5205 4.56367 40.0692 4.56029 43.6178C4.56007 43.8411 4.52572 44.0643 4.47411 44.3214C3.96193 43.4753 3.46101 42.6067 3.01203 41.7111C2.74301 41.1745 2.55516 40.5957 2.33105 39.9925C2.34186 37.5971 2.34762 35.2451 2.36433 32.8931C2.38173 30.4442 3.70031 28.4333 5.89455 27.7916C6.84733 27.5129 7.89772 27.5798 8.95413 27.501Z" fill="#DFDEFF"/>
<path d="M6.00711 46.7834C6.00677 42.2132 6.03008 37.6826 5.99447 33.1526C5.98572 32.0402 6.68349 31.1788 7.89769 31.1901C13.0916 31.2381 18.2862 31.2238 23.4804 31.1992C24.5016 31.1943 25.2959 31.7077 25.2861 33.0176C25.2458 38.3782 25.2499 43.7395 25.286 49.1002C25.2931 50.1448 24.6311 50.8348 23.5777 50.8257C18.9402 50.7856 14.3023 50.8091 9.61141 50.8105C8.25054 49.5969 7.02539 48.3063 6.00711 46.7834ZM11.4639 42.7055C11.0365 43.8505 10.599 44.9917 10.1852 46.1418C9.899 46.9375 10.1773 47.5936 10.8743 47.8498C11.5529 48.0993 12.1758 47.7539 12.4747 46.9599C12.6602 46.4672 12.8178 45.9613 13.0407 45.4869C13.1138 45.3313 13.3511 45.1622 13.5161 45.1593C14.9618 45.1338 16.4083 45.1336 17.8539 45.1601C18.0136 45.163 18.2405 45.3454 18.3138 45.5034C18.5347 45.979 18.6871 46.4869 18.8809 46.9762C19.1954 47.7698 19.826 48.1046 20.4958 47.8472C21.1766 47.5856 21.447 46.9212 21.1496 46.1135C19.8048 42.4609 18.4506 38.812 17.0897 35.1656C16.8188 34.4396 16.3538 34.1299 15.6574 34.1395C14.9914 34.1487 14.5275 34.5049 14.2574 35.2255C13.3334 37.6903 12.4118 40.156 11.4639 42.7055Z" fill="#DFDEFF"/>
<path d="M20.6218 27.5247C20.0566 27.5493 19.4443 27.5595 18.7991 27.5495C19.369 27.523 19.9719 27.5167 20.6218 27.5247Z" fill="#E53B52"/>
<path d="M32.5939 42.7674C32.594 39.4456 32.593 36.1805 32.5946 32.9154C32.5952 31.7733 33.1391 31.2175 34.2666 31.217C39.5714 31.2147 44.8761 31.215 50.1809 31.2169C51.1757 31.2172 51.8454 31.8533 51.8472 32.8592C51.8571 38.3325 51.8566 43.8059 51.847 49.2792C51.8455 50.1866 51.2227 50.8058 50.3292 50.807C44.8946 50.8141 39.4599 50.8138 34.0253 50.8072C33.1733 50.8062 32.599 50.1817 32.5964 49.2788C32.59 47.1272 32.5941 44.9756 32.5939 42.7674ZM37.2193 37.9034C35.7118 41.0957 36.5902 44.6718 39.3676 46.6493C41.9783 48.508 45.4616 48.2536 47.4548 46.0585C48.0314 45.4235 48.0684 44.7237 47.5532 44.1974C47.0173 43.65 46.3606 43.7366 45.6868 44.3287C45.2628 44.7013 44.7743 45.0928 44.2513 45.2364C42.5838 45.694 41.1199 45.2135 39.9843 43.8943C38.8297 42.5531 38.593 40.9858 39.2534 39.3502C39.9165 37.7078 41.192 36.8171 42.9303 36.6564C43.9257 36.5643 44.8234 36.8775 45.6736 37.4024C46.275 37.7736 46.9798 37.5768 47.3318 37.0099C47.6875 36.437 47.5366 35.749 46.956 35.3218C46.8212 35.2226 46.6769 35.1357 46.5322 35.0514C43.2486 33.1402 39.156 34.3663 37.2193 37.9034Z" fill="#DFDEFF"/>
<path d="M29.8399 20.5885C28.9757 20.6997 28.1543 20.8334 27.3282 20.8795C26.4588 20.928 25.5847 20.9014 24.7129 20.8917C23.833 20.882 23.3635 20.4149 23.362 19.5288C23.3558 15.8665 23.356 12.2042 23.3619 8.54186C23.3633 7.6343 23.8076 7.18724 24.6989 7.17977C25.7377 7.17106 26.777 7.1627 27.8156 7.18293C30.6488 7.2381 32.379 10.1877 31.0917 12.7665C30.9542 13.042 30.8889 13.2121 31.1593 13.4857C33.4277 15.7805 32.8029 19.19 29.8399 20.5885ZM29.9843 17.2039C30.263 16.0077 29.7331 15.0038 28.6248 14.8718C27.717 14.7637 26.7868 14.8498 25.8305 14.8498C25.8305 16.0322 25.8305 17.1887 25.8305 18.4058C26.6317 18.4058 27.4051 18.4023 28.1785 18.4068C29.0019 18.4116 29.5985 18.0519 29.9843 17.2039ZM25.7947 11.8831C25.8883 12.0299 25.9769 12.2994 26.0763 12.3035C26.7414 12.3314 27.4131 12.3462 28.0743 12.2792C28.6505 12.2209 29.0629 11.6455 29.0769 11.0312C29.0911 10.4063 28.7204 9.78127 28.1535 9.72283C27.3919 9.64431 26.6166 9.70337 25.7944 9.70337C25.7944 10.4217 25.7944 11.097 25.7947 11.8831Z" fill="#242531"/>
<path d="M11.4767 42.6633C12.4119 40.1559 13.3335 37.6902 14.2575 35.2254C14.5276 34.5048 14.9915 34.1486 15.6575 34.1394C16.3539 34.1298 16.8189 34.4395 17.0898 35.1654C18.4506 38.8118 19.8049 42.4608 21.1497 46.1134C21.4471 46.9211 21.1767 47.5855 20.4959 47.8471C19.8261 48.1045 19.1954 47.7697 18.881 46.9761C18.6872 46.4868 18.5348 45.9789 18.3139 45.5033C18.2405 45.3453 18.0137 45.1629 17.854 45.16C16.4083 45.1335 14.9619 45.1337 13.5162 45.1592C13.3512 45.1621 13.1139 45.3312 13.0408 45.4868C12.8179 45.9611 12.6603 46.4671 12.4748 46.9598C12.1758 47.7538 11.553 48.0992 10.8744 47.8497C10.1774 47.5935 9.89909 46.9374 10.1853 46.1417C10.599 44.9916 11.0366 43.8504 11.4767 42.6633ZM16.9189 41.6885C16.5304 40.6497 16.1419 39.6109 15.7534 38.572C15.7049 38.577 15.6564 38.5819 15.608 38.5869C15.1106 39.9188 14.6133 41.2507 14.104 42.6147C15.2051 42.6147 16.2045 42.6147 17.2555 42.6147C17.1372 42.2948 17.0406 42.0337 16.9189 41.6885Z" fill="#242531"/>
<path d="M37.2574 37.8639C39.1747 34.3641 43.2674 33.138 46.5509 35.0492C46.6956 35.1334 46.8399 35.2204 46.9748 35.3196C47.5554 35.7468 47.7063 36.4348 47.3506 37.0077C46.9986 37.5746 46.2937 37.7714 45.6924 37.4002C44.8422 36.8753 43.9445 36.5621 42.9491 36.6542C41.2107 36.8149 39.9353 37.7056 39.2722 39.348C38.6118 40.9836 38.8485 42.5509 40.0031 43.8921C41.1386 45.2113 42.6026 45.6918 44.2701 45.2342C44.7931 45.0906 45.2815 44.6991 45.7055 44.3265C46.3794 43.7344 47.036 43.6478 47.5719 44.1952C48.0872 44.7215 48.0502 45.4213 47.4736 46.0563C45.4803 48.2514 41.9971 48.5058 39.3864 46.6471C36.609 44.6696 35.7306 41.0935 37.2574 37.8639Z" fill="#242430"/>
<path d="M29.9675 17.2459C29.5985 18.052 29.0019 18.4117 28.1786 18.4069C27.4052 18.4024 26.6318 18.4059 25.8306 18.4059C25.8306 17.1888 25.8306 16.0322 25.8306 14.8499C26.7869 14.8499 27.717 14.7638 28.6248 14.8719C29.7332 15.0039 30.2631 16.0078 29.9675 17.2459Z" fill="#DFDEFF"/>
<path d="M25.7946 11.8278C25.7944 11.0971 25.7944 10.4218 25.7944 9.70344C26.6167 9.70344 27.392 9.64438 28.1536 9.7229C28.7205 9.78134 29.0912 10.4063 29.0769 11.0313C29.0629 11.6455 28.6505 12.2209 28.0743 12.2793C27.4131 12.3463 26.7414 12.3315 26.0763 12.3036C25.9769 12.2995 25.8883 12.0299 25.7946 11.8278Z" fill="#DFDEFF"/>
<path d="M16.9315 41.7308C17.0406 42.0339 17.1371 42.295 17.2555 42.6149C16.2044 42.6149 15.205 42.6149 14.104 42.6149C14.6133 41.2509 15.1106 39.919 15.6079 38.5871C15.6564 38.5822 15.7049 38.5772 15.7534 38.5723C16.1419 39.6111 16.5304 40.6499 16.9315 41.7308Z" fill="#DFDEFF"/>
</g>
<defs>
<clipPath id="clip0_2805_447">
<rect width="57" height="58" fill="white" transform="translate(0.331543 0.397949)"/>
</clipPath>
</defs>
</svg>
