<svg width="58" height="59" viewBox="0 0 58 59" fill="none" xmlns="http://www.w3.org/2000/svg">
<g clip-path="url(#clip0_2816_95)">
<path d="M51.4268 17.2497C51.4787 17.2435 51.5306 17.2372 51.6364 17.2621C51.7498 17.2792 51.8095 17.2652 51.8691 17.2512C53.1293 17.2447 54.3901 17.209 55.6493 17.2414C56.5641 17.265 57.3546 17.794 57.3516 19.0315C57.3195 32.2164 57.3316 45.4014 57.3316 58.6394C55.0656 58.6925 52.7996 58.6925 50.4825 58.6394C50.4316 45.4928 50.4339 32.3994 50.4268 19.3059C50.4263 18.5562 50.5993 17.9328 51.2699 17.5251C51.3482 17.4775 51.3757 17.3436 51.4268 17.2497Z" fill="#FFEBA7"/>
<path d="M36.1745 23.1405C37.546 23.1344 38.9176 23.1131 40.2889 23.1274C41.1654 23.1365 41.8044 23.8434 41.8557 24.8011C41.8637 24.9516 41.857 25.1029 41.857 25.2538C41.857 36.3645 41.857 47.4753 41.857 58.6391C39.591 58.6922 37.325 58.6922 35.0064 58.6391C34.9537 47.3779 34.9596 36.1699 34.9395 24.9618C34.9382 24.239 35.1533 23.7257 35.7696 23.3453C35.9285 23.2752 36.0515 23.2079 36.1745 23.1405Z" fill="#FFEAA2"/>
<path d="M20.5859 29.0309C21.995 29.0249 23.4043 29.0067 24.8133 29.0175C25.5898 29.0235 26.2692 29.7875 26.27 30.6185C26.2729 33.4115 26.2711 36.2045 26.2711 38.9975C26.2711 45.527 26.2711 52.0566 26.2711 58.6393C24.0051 58.6924 21.7391 58.6924 19.4195 58.6393C19.3657 49.3283 19.373 40.0704 19.3523 30.8125C19.3504 29.9822 19.6573 29.4525 20.3992 29.1195C20.4824 29.0908 20.5341 29.0609 20.5859 29.0309Z" fill="#FFE99B"/>
<path d="M4.99443 34.9239C6.44049 34.917 7.8866 34.9004 9.3326 34.9075C10.0182 34.9109 10.638 35.5877 10.6833 36.3383C10.6923 36.4887 10.6849 36.6402 10.6849 36.7911C10.685 44.0561 10.685 51.3211 10.685 58.6391C8.41896 58.6922 6.15296 58.6922 3.83431 58.6391C3.78169 51.3403 3.79561 44.0944 3.76542 36.8488C3.76131 35.863 4.07583 35.23 4.99443 34.9239Z" fill="#FFE795"/>
<path d="M51.375 17.2441C51.3756 17.3433 51.348 17.4772 51.2698 17.5248C50.5991 17.9325 50.4262 18.5559 50.4266 19.3056C50.4338 32.3991 50.4314 45.4925 50.4302 58.6391C49.3506 58.6922 48.2721 58.6922 47.1323 58.669C47.0539 58.6161 47.0299 58.5942 46.9989 58.5801C46.9932 58.4861 46.9824 58.3922 46.9824 58.2982C46.983 45.0591 46.9843 31.82 47.014 18.5131C47.0675 18.4195 47.0817 18.3885 47.0852 18.3524C47.2471 17.7666 47.6396 17.4489 48.2835 17.336C48.3834 17.3117 48.4076 17.2877 48.4238 17.2552C49.3903 17.2497 50.3568 17.2443 51.375 17.2441Z" fill="#F2DB8A"/>
<path d="M35.7337 23.3483C35.1533 23.7259 34.9382 24.2392 34.9395 24.9621C34.9596 36.1701 34.9537 47.3782 34.9542 58.6393C33.839 58.6924 32.7234 58.6924 31.5557 58.6393C31.5018 47.1759 31.5002 35.7657 31.4985 24.3554C31.5757 23.732 31.9402 23.3806 32.6163 23.2343C33.6638 23.2311 34.6173 23.2286 35.5707 23.2261C35.6001 23.1979 35.6294 23.1697 35.6933 23.1947C35.7297 23.2814 35.7317 23.3149 35.7337 23.3483Z" fill="#F8DF89"/>
<path d="M20.3675 29.1185C19.6571 29.4527 19.3503 29.9824 19.3521 30.8126C19.3728 40.0705 19.3655 49.3284 19.3672 58.6394C18.253 58.6925 17.1374 58.6925 15.9609 58.6692C15.8838 58.6155 15.8602 58.5932 15.8292 58.579C15.8237 58.3907 15.8135 58.2023 15.8135 58.014C15.8127 49.0147 15.8151 40.0153 15.8091 31.016C15.8085 30.1741 15.9931 29.4656 16.8555 29.1407C17.0204 29.0786 17.1999 29.0252 17.3733 29.0233C18.3373 29.0127 19.3015 29.0193 20.3169 29.0484C20.3682 29.0768 20.3675 29.1185 20.3675 29.1185Z" fill="#EBD27E"/>
<path d="M4.94358 34.9175C4.07593 35.23 3.76142 35.8631 3.76552 36.8489C3.79571 44.0945 3.78179 51.3403 3.78224 58.6392C2.67153 58.6923 1.56034 58.6923 0.442871 58.6923C0.442871 51.0623 0.442871 43.4323 0.442871 35.7493C0.835764 35.1687 1.3195 34.87 2.00822 34.8978C2.96836 34.9365 3.93104 34.9097 4.94358 34.9175Z" fill="#E2C972"/>
<path d="M31.4599 24.3853C31.5001 35.7657 31.5017 47.176 31.5034 58.6394C31.5034 58.6925 31.4477 58.6925 31.4199 58.6925C31.3921 47.4919 31.3919 36.2913 31.3933 25.0907C31.3933 24.8655 31.4116 24.6403 31.4599 24.3853Z" fill="#F0C036"/>
<path d="M43.3013 6.13075C44.1954 5.62278 45.0488 5.12417 45.9583 4.59276C45.5123 3.91504 45.0936 3.21234 44.6063 2.56292C44.3089 2.16659 44.2886 1.77105 44.4831 1.38855C44.6691 1.02255 45.0151 0.892573 45.46 0.907373C47.4188 0.972536 49.3792 0.988801 51.3387 1.03528C52.2969 1.058 53.2542 1.12536 54.2123 1.1414C55.441 1.16198 55.8393 1.70816 55.4518 2.91326C54.7677 5.04102 54.0763 7.16634 53.3841 9.29142C53.1498 10.0111 52.9094 10.7288 52.6622 11.4439C52.3795 12.2618 51.5585 12.4889 51.0081 11.8545C50.4915 11.2589 50.0621 10.5851 49.5683 9.91C42.5273 14.1217 35.0061 17.2314 27.0936 19.3942C19.1558 21.564 11.0889 22.6866 2.82422 22.6836C2.82422 20.5636 2.82422 18.4811 2.82422 16.3699C3.41468 16.3178 4.01222 16.243 4.61182 16.2162C6.54552 16.1296 8.48621 16.1338 10.4124 15.964C12.2995 15.7978 14.1853 15.5342 16.0481 15.1832C19.1566 14.5975 22.2863 14.059 25.3329 13.2209C28.5359 12.3397 31.6986 11.2526 34.792 10.0282C37.6742 8.88749 40.4422 7.44805 43.3013 6.13075Z" fill="#F6F4FF"/>
<path d="M35.5365 23.1863C34.6172 23.2284 33.6638 23.2309 32.6572 23.2318C33.0344 23.1941 33.4641 23.1378 33.8949 23.1271C34.4302 23.1139 34.9665 23.1384 35.5365 23.1863Z" fill="#F0C036"/>
<path d="M35.7695 23.3457C35.7315 23.3151 35.7296 23.2816 35.7263 23.1977C35.8497 23.1403 35.9745 23.1335 36.1368 23.1338C36.0514 23.2083 35.9284 23.2756 35.7695 23.3457Z" fill="#F0C036"/>
<path d="M51.8344 17.2444C51.8093 17.2653 51.7497 17.2793 51.6748 17.2704C51.7063 17.2441 51.7531 17.2408 51.8344 17.2444Z" fill="#F2753F"/>
<path d="M20.399 29.1193C20.3675 29.1181 20.3682 29.0765 20.3685 29.0556C20.417 29.0287 20.4653 29.0225 20.5496 29.0235C20.5339 29.0607 20.4822 29.0906 20.399 29.1193Z" fill="#10B49D"/>
<path d="M47.0588 18.3633C47.0819 18.3886 47.0676 18.4196 47.0216 18.4605C47.0112 18.4417 47.0217 18.4079 47.0588 18.3633Z" fill="#F2753F"/>
<path d="M48.3954 17.252C48.4077 17.2878 48.3834 17.3118 48.3259 17.3336C48.323 17.3095 48.345 17.279 48.3954 17.252Z" fill="#F2753F"/>
</g>
<defs>
<clipPath id="clip0_2816_95">
<rect width="57" height="58" fill="white" transform="translate(0.331543 0.579102)"/>
</clipPath>
</defs>
</svg>
